  0
SECTION
  2
HEADER
  9
$ACADVER
  1
AC1032
  9
$ACADMAINTVER
 90
4
  9
$DWGCODEPAGE
  3
ANSI_1252
  9
$LASTSAVEDBY
  1
ezdxf
  9
$REQUIREDVERSIONS
160
0
  9
$INSBASE
 10
0.0
 20
0.0
 30
0.0
  9
$EXTMIN
 10
1e+20
 20
1e+20
 30
1e+20
  9
$EXTMAX
 10
-1e+20
 20
-1e+20
 30
-1e+20
  9
$LIMMIN
 10
0.0
 20
0.0
  9
$LIMMAX
 10
420.0
 20
297.0
  9
$ORTHOMODE
 70
0
  9
$REGENMODE
 70
1
  9
$FILLMODE
 70
1
  9
$QTEXTMODE
 70
0
  9
$MIRRTEXT
 70
1
  9
$LTSCALE
 40
1.0
  9
$ATTMODE
 70
1
  9
$TEXTSIZE
 40
2.5
  9
$TRACEWID
 40
1.0
  9
$TEXTSTYLE
  7
Standard
  9
$CLAYER
  8
0
  9
$CELTYPE
  6
ByLayer
  9
$CECOLOR
 62
256
  9
$CELTSCALE
 40
1.0
  9
$DISPSILH
 70
0
  9
$DIMSCALE
 40
1.0
  9
$DIMASZ
 40
2.5
  9
$DIMEXO
 40
0.625
  9
$DIMDLI
 40
3.75
  9
$DIMRND
 40
0.0
  9
$DIMDLE
 40
0.0
  9
$DIMEXE
 40
1.25
  9
$DIMTP
 40
0.0
  9
$DIMTM
 40
0.0
  9
$DIMTXT
 40
2.5
  9
$DIMCEN
 40
2.5
  9
$DIMTSZ
 40
0.0
  9
$DIMTOL
 70
0
  9
$DIMLIM
 70
0
  9
$DIMTIH
 70
0
  9
$DIMTOH
 70
0
  9
$DIMSE1
 70
0
  9
$DIMSE2
 70
0
  9
$DIMTAD
 70
1
  9
$DIMZIN
 70
8
  9
$DIMBLK
  1

  9
$DIMASO
 70
1
  9
$DIMSHO
 70
1
  9
$DIMPOST
  1

  9
$DIMAPOST
  1

  9
$DIMALT
 70
0
  9
$DIMALTD
 70
3
  9
$DIMALTF
 40
0.03937007874
  9
$DIMLFAC
 40
1.0
  9
$DIMTOFL
 70
1
  9
$DIMTVP
 40
0.0
  9
$DIMTIX
 70
0
  9
$DIMSOXD
 70
0
  9
$DIMSAH
 70
0
  9
$DIMBLK1
  1

  9
$DIMBLK2
  1

  9
$DIMSTYLE
  2
ISO-25
  9
$DIMCLRD
 70
0
  9
$DIMCLRE
 70
0
  9
$DIMCLRT
 70
0
  9
$DIMTFAC
 40
1.0
  9
$DIMGAP
 40
0.625
  9
$DIMJUST
 70
0
  9
$DIMSD1
 70
0
  9
$DIMSD2
 70
0
  9
$DIMTOLJ
 70
0
  9
$DIMTZIN
 70
8
  9
$DIMALTZ
 70
0
  9
$DIMALTTZ
 70
0
  9
$DIMUPT
 70
0
  9
$DIMDEC
 70
2
  9
$DIMTDEC
 70
2
  9
$DIMALTU
 70
2
  9
$DIMALTTD
 70
3
  9
$DIMTXSTY
  7
Standard
  9
$DIMAUNIT
 70
0
  9
$DIMADEC
 70
0
  9
$DIMALTRND
 40
0.0
  9
$DIMAZIN
 70
0
  9
$DIMDSEP
 70
44
  9
$DIMATFIT
 70
3
  9
$DIMFRAC
 70
0
  9
$DIMLDRBLK
  1

  9
$DIMLUNIT
 70
2
  9
$DIMLWD
 70
-2
  9
$DIMLWE
 70
-2
  9
$DIMTMOVE
 70
0
  9
$DIMFXL
 40
1.0
  9
$DIMFXLON
 70
0
  9
$DIMJOGANG
 40
0.785398163397
  9
$DIMTFILL
 70
0
  9
$DIMTFILLCLR
 70
0
  9
$DIMARCSYM
 70
0
  9
$DIMLTYPE
  6

  9
$DIMLTEX1
  6

  9
$DIMLTEX2
  6

  9
$DIMTXTDIRECTION
 70
0
  9
$LUNITS
 70
2
  9
$LUPREC
 70
4
  9
$SKETCHINC
 40
1.0
  9
$FILLETRAD
 40
10.0
  9
$AUNITS
 70
0
  9
$AUPREC
 70
2
  9
$MENU
  1
.
  9
$ELEVATION
 40
0.0
  9
$PELEVATION
 40
0.0
  9
$THICKNESS
 40
0.0
  9
$LIMCHECK
 70
0
  9
$CHAMFERA
 40
0.0
  9
$CHAMFERB
 40
0.0
  9
$CHAMFERC
 40
0.0
  9
$CHAMFERD
 40
0.0
  9
$SKPOLY
 70
0
  9
$TDCREATE
 40
2461152.6416782406
  9
$TDUCREATE
 40
2458532.153996898
  9
$TDUPDATE
 40
2461152.6416782406
  9
$TDUUPDATE
 40
2458532.1544311
  9
$TDINDWG
 40
0.0
  9
$TDUSRTIMER
 40
0.0
  9
$USRTIMER
 70
1
  9
$ANGBASE
 50
0.0
  9
$ANGDIR
 70
0
  9
$PDMODE
 70
0
  9
$PDSIZE
 40
0.0
  9
$PLINEWID
 40
0.0
  9
$SPLFRAME
 70
0
  9
$SPLINETYPE
 70
6
  9
$SPLINESEGS
 70
8
  9
$HANDSEED
  5
2D6
  9
$SURFTAB1
 70
6
  9
$SURFTAB2
 70
6
  9
$SURFTYPE
 70
6
  9
$SURFU
 70
6
  9
$SURFV
 70
6
  9
$UCSBASE
  2

  9
$UCSNAME
  2

  9
$UCSORG
 10
0.0
 20
0.0
 30
0.0
  9
$UCSXDIR
 10
1.0
 20
0.0
 30
0.0
  9
$UCSYDIR
 10
0.0
 20
1.0
 30
0.0
  9
$UCSORTHOREF
  2

  9
$UCSORTHOVIEW
 70
0
  9
$UCSORGTOP
 10
0.0
 20
0.0
 30
0.0
  9
$UCSORGBOTTOM
 10
0.0
 20
0.0
 30
0.0
  9
$UCSORGLEFT
 10
0.0
 20
0.0
 30
0.0
  9
$UCSORGRIGHT
 10
0.0
 20
0.0
 30
0.0
  9
$UCSORGFRONT
 10
0.0
 20
0.0
 30
0.0
  9
$UCSORGBACK
 10
0.0
 20
0.0
 30
0.0
  9
$PUCSBASE
  2

  9
$PUCSNAME
  2

  9
$PUCSORG
 10
0.0
 20
0.0
 30
0.0
  9
$PUCSXDIR
 10
1.0
 20
0.0
 30
0.0
  9
$PUCSYDIR
 10
0.0
 20
1.0
 30
0.0
  9
$PUCSORTHOREF
  2

  9
$PUCSORTHOVIEW
 70
0
  9
$PUCSORGTOP
 10
0.0
 20
0.0
 30
0.0
  9
$PUCSORGBOTTOM
 10
0.0
 20
0.0
 30
0.0
  9
$PUCSORGLEFT
 10
0.0
 20
0.0
 30
0.0
  9
$PUCSORGRIGHT
 10
0.0
 20
0.0
 30
0.0
  9
$PUCSORGFRONT
 10
0.0
 20
0.0
 30
0.0
  9
$PUCSORGBACK
 10
0.0
 20
0.0
 30
0.0
  9
$USERI1
 70
0
  9
$USERI2
 70
0
  9
$USERI3
 70
0
  9
$USERI4
 70
0
  9
$USERI5
 70
0
  9
$USERR1
 40
0.0
  9
$USERR2
 40
0.0
  9
$USERR3
 40
0.0
  9
$USERR4
 40
0.0
  9
$USERR5
 40
0.0
  9
$WORLDVIEW
 70
1
  9
$SHADEDGE
 70
3
  9
$SHADEDIF
 70
70
  9
$TILEMODE
 70
1
  9
$MAXACTVP
 70
64
  9
$PINSBASE
 10
0.0
 20
0.0
 30
0.0
  9
$PLIMCHECK
 70
0
  9
$PEXTMIN
 10
1e+20
 20
1e+20
 30
1e+20
  9
$PEXTMAX
 10
-1e+20
 20
-1e+20
 30
-1e+20
  9
$PLIMMIN
 10
0.0
 20
0.0
  9
$PLIMMAX
 10
420.0
 20
297.0
  9
$UNITMODE
 70
0
  9
$VISRETAIN
 70
1
  9
$PLINEGEN
 70
0
  9
$PSLTSCALE
 70
1
  9
$TREEDEPTH
 70
3020
  9
$CMLSTYLE
  2
Standard
  9
$CMLJUST
 70
0
  9
$CMLSCALE
 40
20.0
  9
$PROXYGRAPHICS
 70
1
  9
$MEASUREMENT
 70
1
  9
$CELWEIGHT
370
-1
  9
$ENDCAPS
280
0
  9
$JOINSTYLE
280
0
  9
$LWDISPLAY
290
0
  9
$INSUNITS
 70
6
  9
$HYPERLINKBASE
  1

  9
$STYLESHEET
  1

  9
$XEDIT
290
1
  9
$CEPSNTYPE
380
0
  9
$PSTYLEMODE
290
1
  9
$FINGERPRINTGUID
  2
{45751130-3C2B-47CC-8C6C-368277958056}
  9
$VERSIONGUID
  2
{DF61603B-3EE5-46AB-B504-9D92BF75C792}
  9
$EXTNAMES
290
1
  9
$PSVPSCALE
 40
0.0
  9
$OLESTARTUP
290
0
  9
$SORTENTS
280
127
  9
$INDEXCTL
280
0
  9
$HIDETEXT
280
1
  9
$XCLIPFRAME
280
1
  9
$HALOGAP
280
0
  9
$OBSCOLOR
 70
257
  9
$OBSLTYPE
280
0
  9
$INTERSECTIONDISPLAY
280
0
  9
$INTERSECTIONCOLOR
 70
257
  9
$DIMASSOC
280
2
  9
$PROJECTNAME
  1

  9
$CAMERADISPLAY
290
0
  9
$LENSLENGTH
 40
50.0
  9
$CAMERAHEIGHT
 40
0.0
  9
$STEPSPERSEC
 40
24.0
  9
$STEPSIZE
 40
100.0
  9
$3DDWFPREC
 40
2.0
  9
$PSOLWIDTH
 40
0.005
  9
$PSOLHEIGHT
 40
0.08
  9
$LOFTANG1
 40
1.570796326795
  9
$LOFTANG2
 40
1.570796326795
  9
$LOFTMAG1
 40
0.0
  9
$LOFTMAG2
 40
0.0
  9
$LOFTPARAM
 70
7
  9
$LOFTNORMALS
280
1
  9
$LATITUDE
 40
37.795
  9
$LONGITUDE
 40
-122.394
  9
$NORTHDIRECTION
 40
0.0
  9
$TIMEZONE
 70
-8000
  9
$LIGHTGLYPHDISPLAY
280
1
  9
$TILEMODELIGHTSYNCH
280
1
  9
$CMATERIAL
347
20
  9
$SOLIDHIST
280
0
  9
$SHOWHIST
280
1
  9
$DWFFRAME
280
2
  9
$DGNFRAME
280
2
  9
$REALWORLDSCALE
290
1
  9
$INTERFERECOLOR
 62
256
  9
$CSHADOW
280
0
  9
$SHADOWPLANELOCATION
 40
0.0
  0
ENDSEC
  0
SECTION
  2
CLASSES
  0
CLASS
  1
ACDBDICTIONARYWDFLT
  2
AcDbDictionaryWithDefault
  3
ObjectDBX Classes
 90
0
 91
0
280
0
281
0
  0
CLASS
  1
SUN
  2
AcDbSun
  3
SCENEOE
 90
1153
 91
0
280
0
281
0
  0
CLASS
  1
VISUALSTYLE
  2
AcDbVisualStyle
  3
ObjectDBX Classes
 90
4095
 91
0
280
0
281
0
  0
CLASS
  1
MATERIAL
  2
AcDbMaterial
  3
ObjectDBX Classes
 90
1153
 91
0
280
0
281
0
  0
CLASS
  1
SCALE
  2
AcDbScale
  3
ObjectDBX Classes
 90
1153
 91
0
280
0
281
0
  0
CLASS
  1
TABLESTYLE
  2
AcDbTableStyle
  3
ObjectDBX Classes
 90
4095
 91
0
280
0
281
0
  0
CLASS
  1
MLEADERSTYLE
  2
AcDbMLeaderStyle
  3
ACDB_MLEADERSTYLE_CLASS
 90
4095
 91
0
280
0
281
0
  0
CLASS
  1
DICTIONARYVAR
  2
AcDbDictionaryVar
  3
ObjectDBX Classes
 90
0
 91
0
280
0
281
0
  0
CLASS
  1
CELLSTYLEMAP
  2
AcDbCellStyleMap
  3
ObjectDBX Classes
 90
1152
 91
0
280
0
281
0
  0
CLASS
  1
MENTALRAYRENDERSETTINGS
  2
AcDbMentalRayRenderSettings
  3
SCENEOE
 90
1024
 91
0
280
0
281
0
  0
CLASS
  1
ACDBDETAILVIEWSTYLE
  2
AcDbDetailViewStyle
  3
ObjectDBX Classes
 90
1025
 91
0
280
0
281
0
  0
CLASS
  1
ACDBSECTIONVIEWSTYLE
  2
AcDbSectionViewStyle
  3
ObjectDBX Classes
 90
1025
 91
0
280
0
281
0
  0
CLASS
  1
RASTERVARIABLES
  2
AcDbRasterVariables
  3
ISM
 90
0
 91
0
280
0
281
0
  0
CLASS
  1
ACDBPLACEHOLDER
  2
AcDbPlaceHolder
  3
ObjectDBX Classes
 90
0
 91
0
280
0
281
0
  0
CLASS
  1
LAYOUT
  2
AcDbLayout
  3
ObjectDBX Classes
 90
0
 91
0
280
0
281
0
  0
ENDSEC
  0
SECTION
  2
TABLES
  0
TABLE
  2
VPORT
  5
8
330
0
100
AcDbSymbolTable
 70
1
  0
VPORT
  5
23
330
8
100
AcDbSymbolTableRecord
100
AcDbViewportTableRecord
  2
*Active
 70
0
 10
0.0
 20
0.0
 11
1.0
 21
1.0
 12
0.0
 22
0.0
 13
0.0
 23
0.0
 14
0.5
 24
0.5
 15
0.5
 25
0.5
 16
0.0
 26
0.0
 36
1.0
 17
0.0
 27
0.0
 37
0.0
 40
1000.0
 41
1.34
 42
50.0
 43
0.0
 44
0.0
 50
0.0
 51
0.0
 71
0
 72
1000
 73
1
 74
3
 75
0
 76
0
 77
0
 78
0
281
0
 65
0
146
0.0
  0
ENDTAB
  0
TABLE
  2
LTYPE
  5
2
330
0
100
AcDbSymbolTable
 70
3
  0
LTYPE
  5
24
330
2
100
AcDbSymbolTableRecord
100
AcDbLinetypeTableRecord
  2
ByBlock
 70
0
  3

 72
65
 73
0
 40
0.0
  0
LTYPE
  5
25
330
2
100
AcDbSymbolTableRecord
100
AcDbLinetypeTableRecord
  2
ByLayer
 70
0
  3

 72
65
 73
0
 40
0.0
  0
LTYPE
  5
26
330
2
100
AcDbSymbolTableRecord
100
AcDbLinetypeTableRecord
  2
Continuous
 70
0
  3

 72
65
 73
0
 40
0.0
  0
ENDTAB
  0
TABLE
  2
LAYER
  5
1
330
0
100
AcDbSymbolTable
 70
9
  0
LAYER
  5
27
330
1
100
AcDbSymbolTableRecord
100
AcDbLayerTableRecord
  2
0
 70
0
 62
7
  6
Continuous
370
-3
390
13
347
21
  0
LAYER
  5
28
330
1
100
AcDbSymbolTableRecord
100
AcDbLayerTableRecord
  2
Defpoints
 70
0
 62
7
  6
Continuous
290
0
370
-3
390
13
347
21
  0
LAYER
  5
2F
330
1
100
AcDbSymbolTableRecord
100
AcDbLayerTableRecord
  2
BUILDING
 70
0
 62
7
  6
Continuous
370
-3
390
13
347
21
  0
LAYER
  5
30
330
1
100
AcDbSymbolTableRecord
100
AcDbLayerTableRecord
  2
BOUNDARY
 70
0
 62
6
  6
Continuous
370
-3
390
13
347
21
  0
LAYER
  5
31
330
1
100
AcDbSymbolTableRecord
100
AcDbLayerTableRecord
  2
LPS_MESH
 70
0
 62
1
  6
Continuous
370
-3
390
13
347
21
  0
LAYER
  5
32
330
1
100
AcDbSymbolTableRecord
100
AcDbLayerTableRecord
  2
DOWN_CONDUCTORS
 70
0
 62
5
  6
Continuous
370
-3
390
13
347
21
  0
LAYER
  5
33
330
1
100
AcDbSymbolTableRecord
100
AcDbLayerTableRecord
  2
EARTHING_RING
 70
0
 62
3
  6
Continuous
370
-3
390
13
347
21
  0
LAYER
  5
34
330
1
100
AcDbSymbolTableRecord
100
AcDbLayerTableRecord
  2
AIR_TERMINALS
 70
0
 62
6
  6
Continuous
370
-3
390
13
347
21
  0
LAYER
  5
35
330
1
100
AcDbSymbolTableRecord
100
AcDbLayerTableRecord
  2
EARTH_PITS
 70
0
 62
2
  6
Continuous
370
-3
390
13
347
21
  0
ENDTAB
  0
TABLE
  2
STYLE
  5
5
330
0
100
AcDbSymbolTable
 70
1
  0
STYLE
  5
29
330
5
100
AcDbSymbolTableRecord
100
AcDbTextStyleTableRecord
  2
Standard
 70
0
 40
0.0
 41
1.0
 50
0.0
 71
0
 42
2.5
  3
txt
  4

  0
ENDTAB
  0
TABLE
  2
VIEW
  5
7
330
0
100
AcDbSymbolTable
 70
0
  0
ENDTAB
  0
TABLE
  2
UCS
  5
6
330
0
100
AcDbSymbolTable
 70
0
  0
ENDTAB
  0
TABLE
  2
APPID
  5
3
330
0
100
AcDbSymbolTable
 70
3
  0
APPID
  5
2A
330
3
100
AcDbSymbolTableRecord
100
AcDbRegAppTableRecord
  2
ACAD
 70
0
  0
APPID
  5
2D3
330
3
100
AcDbSymbolTableRecord
100
AcDbRegAppTableRecord
  2
HATCHBACKGROUNDCOLOR
 70
0
  0
APPID
  5
2D4
330
3
100
AcDbSymbolTableRecord
100
AcDbRegAppTableRecord
  2
EZDXF
 70
0
  0
ENDTAB
  0
TABLE
  2
DIMSTYLE
  5
4
330
0
100
AcDbSymbolTable
 70
1
100
AcDbDimStyleTable
  0
DIMSTYLE
105
2B
330
4
100
AcDbSymbolTableRecord
100
AcDbDimStyleTableRecord
  2
Standard
 70
0
 40
1.0
 41
2.5
 42
0.625
 43
3.75
 44
1.25
 45
0.0
 46
0.0
 47
0.0
 48
0.0
 49
2.5
140
2.5
141
2.5
142
0.0
143
0.03937007874
144
1.0
145
0.0
146
1.0
147
0.625
148
0.0
 69
0
 70
0
 71
0
 72
0
 73
0
 74
0
 75
0
 76
0
 77
1
 78
8
 79
3
170
0
171
3
172
1
173
0
174
0
175
0
176
0
177
0
178
0
179
2
271
2
272
2
273
2
274
3
275
0
276
0
277
2
278
44
279
0
280
0
281
0
282
0
283
0
284
8
285
0
286
0
288
0
289
3
290
0
371
-2
372
-2
  0
ENDTAB
  0
TABLE
  2
BLOCK_RECORD
  5
9
330
0
100
AcDbSymbolTable
 70
2
  0
BLOCK_RECORD
  5
17
330
9
100
AcDbSymbolTableRecord
100
AcDbBlockTableRecord
  2
*Model_Space
340
1A
 70
0
280
1
281
0
  0
BLOCK_RECORD
  5
1B
330
9
100
AcDbSymbolTableRecord
100
AcDbBlockTableRecord
  2
*Paper_Space
340
1E
 70
0
280
1
281
0
  0
ENDTAB
  0
ENDSEC
  0
SECTION
  2
BLOCKS
  0
BLOCK
  5
18
330
17
100
AcDbEntity
  8
0
100
AcDbBlockBegin
  2
*Model_Space
 70
0
 10
0.0
 20
0.0
 30
0.0
  3
*Model_Space
  1

  0
ENDBLK
  5
19
330
17
100
AcDbEntity
  8
0
100
AcDbBlockEnd
  0
BLOCK
  5
1C
330
1B
100
AcDbEntity
  8
0
100
AcDbBlockBegin
  2
*Paper_Space
 70
0
 10
0.0
 20
0.0
 30
0.0
  3
*Paper_Space
  1

  0
ENDBLK
  5
1D
330
1B
100
AcDbEntity
  8
0
100
AcDbBlockEnd
  0
ENDSEC
  0
SECTION
  2
ENTITIES
  0
LINE
  5
36
330
17
100
AcDbEntity
  8
BUILDING
100
AcDbLine
 10
1127782.080321461
 20
107920.8138611483
 30
0.0
 11
1020333.239848921
 21
107920.8138611485
 31
0.0
  0
LINE
  5
37
330
17
100
AcDbEntity
  8
BUILDING
100
AcDbLine
 10
1127782.080321461
 20
101250.8138611483
 30
0.0
 11
1020333.239848921
 21
101250.8138611485
 31
0.0
  0
LINE
  5
38
330
17
100
AcDbEntity
  8
BUILDING
100
AcDbLine
 10
1122919.572662282
 20
87910.81386115198
 30
0.0
 11
1020333.239848921
 21
87910.81386115198
 31
0.0
  0
LINE
  5
39
330
17
100
AcDbEntity
  8
BUILDING
100
AcDbLine
 10
1122919.572662282
 20
81730.81386115943
 30
0.0
 11
1020333.239848921
 21
81730.81386115943
 31
0.0
  0
LINE
  5
3A
330
17
100
AcDbEntity
  8
BUILDING
100
AcDbLine
 10
1122919.572662282
 20
75170.80782271718
 30
0.0
 11
1020333.239848921
 21
75170.80782271718
 31
0.0
  0
LINE
  5
3B
330
17
100
AcDbEntity
  8
BUILDING
100
AcDbLine
 10
1113898.027601117
 20
138796.5361382031
 30
0.0
 11
1113898.027601117
 21
60242.38624532038
 31
0.0
  0
LINE
  5
3C
330
17
100
AcDbEntity
  8
BUILDING
100
AcDbLine
 10
1105648.027601117
 20
138796.5361382031
 30
0.0
 11
1105648.027601117
 21
60660.81386114102
 31
0.0
  0
LINE
  5
3D
330
17
100
AcDbEntity
  8
BUILDING
100
AcDbLine
 10
1097398.027601117
 20
138796.5361382031
 30
0.0
 11
1097398.027601117
 21
60660.81386114104
 31
0.0
  0
LINE
  5
3E
330
17
100
AcDbEntity
  8
BUILDING
100
AcDbLine
 10
1089148.027601117
 20
138796.5361382031
 30
0.0
 11
1089148.027601117
 21
60242.38624532038
 31
0.0
  0
LINE
  5
3F
330
17
100
AcDbEntity
  8
BUILDING
100
AcDbLine
 10
1080898.02760113
 20
138796.5361382031
 30
0.0
 11
1080898.02760113
 21
60242.38624532038
 31
0.0
  0
LINE
  5
40
330
17
100
AcDbEntity
  8
BUILDING
100
AcDbLine
 10
1072648.027601117
 20
138796.5361382031
 30
0.0
 11
1072648.027601117
 21
60660.81386114104
 31
0.0
  0
LINE
  5
41
330
17
100
AcDbEntity
  8
BUILDING
100
AcDbLine
 10
1064398.027601119
 20
138796.5361382031
 30
0.0
 11
1064398.027601119
 21
56602.66473362787
 31
0.0
  0
LINE
  5
42
330
17
100
AcDbEntity
  8
BUILDING
100
AcDbLine
 10
1047628.024581906
 20
138796.5361382031
 30
0.0
 11
1047628.024581906
 21
80667.78704114683
 31
0.0
  0
LINE
  5
43
330
17
100
AcDbEntity
  8
BUILDING
100
AcDbLine
 10
1056148.02527349
 20
138796.5361382031
 30
0.0
 11
1056148.081322635
 21
56388.05190092657
 31
0.0
  0
LINE
  5
44
330
17
100
AcDbEntity
  8
BUILDING
100
AcDbLine
 10
1053142.163315212
 20
73553.53019835759
 30
0.0
 11
1040488.07652186
 21
73553.53019835759
 31
0.0
  0
LINE
  5
45
330
17
100
AcDbEntity
  8
BUILDING
100
AcDbLine
 10
1040488.07652186
 20
73553.53019835759
 30
0.0
 11
1040488.07652186
 21
71740.63951473177
 31
0.0
  0
LINE
  5
46
330
17
100
AcDbEntity
  8
BUILDING
100
AcDbLine
 10
1040488.07652186
 20
71740.63951473177
 30
0.0
 11
1053142.163315212
 21
71740.63951473177
 31
0.0
  0
LINE
  5
47
330
17
100
AcDbEntity
  8
BUILDING
100
AcDbLine
 10
1053142.163315212
 20
71740.63951473177
 30
0.0
 11
1053142.163315212
 21
73553.53019835759
 31
0.0
  0
LINE
  5
48
330
17
100
AcDbEntity
  8
BUILDING
100
AcDbLine
 10
1122919.572662282
 20
114590.8138611483
 30
0.0
 11
1020333.239848921
 21
114590.8138611483
 31
0.0
  0
LINE
  5
49
330
17
100
AcDbEntity
  8
BUILDING
100
AcDbLine
 10
1121678.027601117
 20
138796.5361382031
 30
0.0
 11
1121678.027601117
 21
60242.38624532038
 31
0.0
  0
LINE
  5
4A
330
17
100
AcDbEntity
  8
BUILDING
100
AcDbLine
 10
1122919.572662282
 20
120800.8138611259
 30
0.0
 11
1020333.239848921
 21
120800.8138611259
 31
0.0
  0
LINE
  5
4B
330
17
100
AcDbEntity
  8
BUILDING
100
AcDbLine
 10
1122919.572662282
 20
61720.81386114104
 30
0.0
 11
1020333.239848921
 21
61720.81386114104
 31
0.0
  0
LINE
  5
4C
330
17
100
AcDbEntity
  8
BUILDING
100
AcDbLine
 10
1127782.080321461
 20
94580.81386114826
 30
0.0
 11
1020333.239848921
 21
94580.8138611485
 31
0.0
  0
LINE
  5
4D
330
17
100
AcDbEntity
  8
BUILDING
100
AcDbLine
 10
1055782.069539317
 20
80930.81386115943
 30
0.0
 11
1038148.027601113
 21
80930.81386115943
 31
0.0
  0
LINE
  5
4E
330
17
100
AcDbEntity
  8
BUILDING
100
AcDbLine
 10
1055782.069539317
 20
80930.81386115943
 30
0.0
 11
1055782.069539317
 21
61260.81386114104
 31
0.0
  0
LINE
  5
4F
330
17
100
AcDbEntity
  8
BUILDING
100
AcDbLine
 10
1038148.027601113
 20
121260.8138611373
 30
0.0
 11
1122148.027601117
 21
121260.8138611373
 31
0.0
  0
LINE
  5
50
330
17
100
AcDbEntity
  8
BUILDING
100
AcDbLine
 10
1122148.027601117
 20
121260.8138611373
 30
0.0
 11
1122148.027601117
 21
61260.81386114104
 31
0.0
  0
LINE
  5
51
330
17
100
AcDbEntity
  8
BUILDING
100
AcDbLine
 10
1122148.027601117
 20
61260.81386114104
 30
0.0
 11
1038148.027601113
 21
61260.81386114104
 31
0.0
  0
LINE
  5
52
330
17
100
AcDbEntity
  8
BUILDING
100
AcDbLine
 10
1038148.027601113
 20
61260.81386114104
 30
0.0
 11
1038148.027601113
 21
121260.8138611373
 31
0.0
  0
LINE
  5
53
330
17
100
AcDbEntity
  8
BUILDING
100
AcDbLine
 10
1126378.083735594
 20
68325.8078301461
 30
0.0
 11
1126378.083735594
 21
94755.8138686298
 31
0.0
  0
LINE
  5
54
330
17
100
AcDbEntity
  8
BUILDING
100
AcDbLine
 10
1126378.083735594
 20
94755.8138686298
 30
0.0
 11
1122148.374223567
 21
94755.8138686298
 31
0.0
  0
LINE
  5
55
330
17
100
AcDbEntity
  8
BUILDING
100
AcDbLine
 10
1122148.374223567
 20
94755.8138686298
 30
0.0
 11
1122148.374223567
 21
68325.8078301461
 31
0.0
  0
LINE
  5
56
330
17
100
AcDbEntity
  8
BUILDING
100
AcDbLine
 10
1122148.374223567
 20
68325.8078301461
 30
0.0
 11
1126378.083735594
 21
68325.8078301461
 31
0.0
  0
LINE
  5
57
330
17
100
AcDbEntity
  8
BUILDING
100
AcDbLine
 10
1124888.133100292
 20
76478.32528034347
 30
0.0
 11
1124888.133100292
 21
89132.41207369539
 31
0.0
  0
LINE
  5
58
330
17
100
AcDbEntity
  8
BUILDING
100
AcDbLine
 10
1124888.133100292
 20
89132.41207369539
 30
0.0
 11
1123075.242416666
 21
89132.41207369539
 31
0.0
  0
LINE
  5
59
330
17
100
AcDbEntity
  8
BUILDING
100
AcDbLine
 10
1123075.242416666
 20
89132.41207369539
 30
0.0
 11
1123075.242416666
 21
76478.32528034347
 31
0.0
  0
LINE
  5
5A
330
17
100
AcDbEntity
  8
BUILDING
100
AcDbLine
 10
1123075.242416666
 20
76478.32528034347
 30
0.0
 11
1124888.133100292
 21
76478.32528034347
 31
0.0
  0
LINE
  5
5B
330
17
100
AcDbEntity
  8
BUILDING
100
AcDbLine
 10
1056048.034549262
 20
125760.8138611373
 30
0.0
 11
1072748.027601117
 21
125760.8138611373
 31
0.0
  0
LINE
  5
5C
330
17
100
AcDbEntity
  8
BUILDING
100
AcDbLine
 10
1072748.027601117
 20
125760.8138611373
 30
0.0
 11
1072748.027601117
 21
121260.8138611373
 31
0.0
  0
LINE
  5
5D
330
17
100
AcDbEntity
  8
BUILDING
100
AcDbLine
 10
1072748.027601117
 20
121260.8138611373
 30
0.0
 11
1056048.034549262
 21
121260.8138611373
 31
0.0
  0
LINE
  5
5E
330
17
100
AcDbEntity
  8
BUILDING
100
AcDbLine
 10
1056048.034549262
 20
121260.8138611373
 30
0.0
 11
1056048.034549262
 21
125760.8138611373
 31
0.0
  0
LINE
  5
5F
330
17
100
AcDbEntity
  8
BUILDING
100
AcDbLine
 10
1055782.069539317
 20
61260.81386114104
 30
0.0
 11
1064498.027601119
 21
61260.81386114104
 31
0.0
  0
LINE
  5
60
330
17
100
AcDbEntity
  8
BUILDING
100
AcDbLine
 10
1064498.027601119
 20
61260.81386114104
 30
0.0
 11
1064498.027601119
 21
58260.81386114104
 31
0.0
  0
LINE
  5
61
330
17
100
AcDbEntity
  8
BUILDING
100
AcDbLine
 10
1064498.027601119
 20
58260.81386114104
 30
0.0
 11
1055782.069539317
 21
58260.81386114104
 31
0.0
  0
LINE
  5
62
330
17
100
AcDbEntity
  8
BUILDING
100
AcDbLine
 10
1055782.069539317
 20
58260.81386114104
 30
0.0
 11
1055782.069539317
 21
61260.81386114104
 31
0.0
  0
LINE
  5
63
330
17
100
AcDbEntity
  8
BUILDING
100
AcDbLine
 10
1122148.027601117
 20
108020.8138611483
 30
0.0
 11
1126648.027601117
 21
108020.8138611483
 31
0.0
  0
LINE
  5
64
330
17
100
AcDbEntity
  8
BUILDING
100
AcDbLine
 10
1126648.027601117
 20
108020.8138611483
 30
0.0
 11
1126648.027601117
 21
94374.12155249302
 31
0.0
  0
LINE
  5
65
330
17
100
AcDbEntity
  8
BUILDING
100
AcDbLine
 10
1126648.027601117
 20
94374.12155249302
 30
0.0
 11
1122148.027601117
 21
94374.12155249302
 31
0.0
  0
LINE
  5
66
330
17
100
AcDbEntity
  8
BUILDING
100
AcDbLine
 10
1122148.027601117
 20
94374.12155249302
 30
0.0
 11
1122148.027601117
 21
108020.8138611483
 31
0.0
  0
LINE
  5
67
330
17
100
AcDbEntity
  8
BUILDING
100
AcDbLine
 10
1038148.027601113
 20
91260.81386113873
 30
0.0
 11
1122437.234566378
 21
91260.81386113873
 31
0.0
  0
LINE
  5
68
330
17
100
AcDbEntity
  8
BUILDING
100
AcDbLine
 10
1047628.024581906
 20
92412.47720513173
 30
0.0
 11
1113898.027601117
 21
92412.47720513173
 31
0.0
  0
LINE
  5
69
330
17
100
AcDbEntity
  8
BUILDING
100
AcDbLine
 10
1113898.027601117
 20
92412.47720513173
 30
0.0
 11
1113898.027601117
 21
90109.15051714663
 31
0.0
  0
LINE
  5
6A
330
17
100
AcDbEntity
  8
BUILDING
100
AcDbLine
 10
1113898.027601117
 20
90109.15051714663
 30
0.0
 11
1047628.024581906
 21
90109.15051714663
 31
0.0
  0
LINE
  5
6B
330
17
100
AcDbEntity
  8
BUILDING
100
AcDbLine
 10
1047628.024581906
 20
90109.15051714663
 30
0.0
 11
1047628.024581906
 21
92412.47720513173
 31
0.0
  0
LINE
  5
6C
330
17
100
AcDbEntity
  8
BUILDING
100
AcDbLine
 10
1113898.027601117
 20
91696.30794042308
 30
0.0
 11
1121678.027601117
 21
91696.30794042308
 31
0.0
  0
LINE
  5
6D
330
17
100
AcDbEntity
  8
BUILDING
100
AcDbLine
 10
1121678.027601117
 20
91696.30794042308
 30
0.0
 11
1121678.027601117
 21
90825.31978185434
 31
0.0
  0
LINE
  5
6E
330
17
100
AcDbEntity
  8
BUILDING
100
AcDbLine
 10
1121678.027601117
 20
90825.31978185434
 30
0.0
 11
1113898.027601117
 21
90825.31978185434
 31
0.0
  0
LINE
  5
6F
330
17
100
AcDbEntity
  8
BUILDING
100
AcDbLine
 10
1113898.027601117
 20
90825.31978185434
 30
0.0
 11
1113898.027601117
 21
91696.30794042308
 31
0.0
  0
LINE
  5
70
330
17
100
AcDbEntity
  8
BUILDING
100
AcDbLine
 10
1047628.024581906
 20
91696.30794042308
 30
0.0
 11
1038148.027601113
 21
91696.30794042308
 31
0.0
  0
LINE
  5
71
330
17
100
AcDbEntity
  8
BUILDING
100
AcDbLine
 10
1038148.027601113
 20
91696.30794042308
 30
0.0
 11
1038148.027601113
 21
90825.31978185434
 31
0.0
  0
LINE
  5
72
330
17
100
AcDbEntity
  8
BUILDING
100
AcDbLine
 10
1038148.027601113
 20
90825.31978185434
 30
0.0
 11
1047628.024581906
 21
90825.31978185434
 31
0.0
  0
LINE
  5
73
330
17
100
AcDbEntity
  8
BUILDING
100
AcDbLine
 10
1047628.024581906
 20
90825.31978185434
 30
0.0
 11
1047628.024581906
 21
91696.30794042308
 31
0.0
  0
LINE
  5
74
330
17
100
AcDbEntity
  8
BUILDING
100
AcDbLine
 10
1039148.027601113
 20
91696.30794042308
 30
0.0
 11
1039148.027601113
 21
121260.8138611373
 31
0.0
  0
LINE
  5
75
330
17
100
AcDbEntity
  8
BUILDING
100
AcDbLine
 10
1049148.027601113
 20
92412.47720513173
 30
0.0
 11
1049148.027601113
 21
121260.8138611373
 31
0.0
  0
LINE
  5
76
330
17
100
AcDbEntity
  8
BUILDING
100
AcDbLine
 10
1121148.027601113
 20
91696.30794042308
 30
0.0
 11
1121148.027601113
 21
121260.8138611373
 31
0.0
  0
LINE
  5
77
330
17
100
AcDbEntity
  8
BUILDING
100
AcDbLine
 10
1120148.027601113
 20
91696.30794042308
 30
0.0
 11
1120148.027601113
 21
121260.8138611373
 31
0.0
  0
LINE
  5
78
330
17
100
AcDbEntity
  8
BUILDING
100
AcDbLine
 10
1119148.027601113
 20
91696.30794042308
 30
0.0
 11
1119148.027601113
 21
121260.8138611373
 31
0.0
  0
LINE
  5
79
330
17
100
AcDbEntity
  8
BUILDING
100
AcDbLine
 10
1118148.027601113
 20
91696.30794042308
 30
0.0
 11
1118148.027601113
 21
121260.8138611373
 31
0.0
  0
LINE
  5
7A
330
17
100
AcDbEntity
  8
BUILDING
100
AcDbLine
 10
1117148.027601113
 20
91696.30794042308
 30
0.0
 11
1117148.027601113
 21
121260.8138611373
 31
0.0
  0
LINE
  5
7B
330
17
100
AcDbEntity
  8
BUILDING
100
AcDbLine
 10
1116148.027601113
 20
91696.30794042308
 30
0.0
 11
1116148.027601113
 21
121260.8138611373
 31
0.0
  0
LINE
  5
7C
330
17
100
AcDbEntity
  8
BUILDING
100
AcDbLine
 10
1115148.027601113
 20
91696.30794042308
 30
0.0
 11
1115148.027601113
 21
121260.8138611373
 31
0.0
  0
LINE
  5
7D
330
17
100
AcDbEntity
  8
BUILDING
100
AcDbLine
 10
1114148.027601113
 20
91696.30794042308
 30
0.0
 11
1114148.027601113
 21
121260.8138611373
 31
0.0
  0
LINE
  5
7E
330
17
100
AcDbEntity
  8
BUILDING
100
AcDbLine
 10
1113148.027601113
 20
92412.47720513173
 30
0.0
 11
1113148.027601113
 21
121260.8138611373
 31
0.0
  0
LINE
  5
7F
330
17
100
AcDbEntity
  8
BUILDING
100
AcDbLine
 10
1112148.027601113
 20
92412.47720513173
 30
0.0
 11
1112148.027601113
 21
121260.8138611373
 31
0.0
  0
LINE
  5
80
330
17
100
AcDbEntity
  8
BUILDING
100
AcDbLine
 10
1111148.027601113
 20
92412.47720513173
 30
0.0
 11
1111148.027601113
 21
121260.8138611373
 31
0.0
  0
LINE
  5
81
330
17
100
AcDbEntity
  8
BUILDING
100
AcDbLine
 10
1110148.027601113
 20
92412.47720513173
 30
0.0
 11
1110148.027601113
 21
121260.8138611373
 31
0.0
  0
LINE
  5
82
330
17
100
AcDbEntity
  8
BUILDING
100
AcDbLine
 10
1109148.027601113
 20
92412.47720513173
 30
0.0
 11
1109148.027601113
 21
121260.8138611373
 31
0.0
  0
LINE
  5
83
330
17
100
AcDbEntity
  8
BUILDING
100
AcDbLine
 10
1108148.027601113
 20
92412.47720513173
 30
0.0
 11
1108148.027601113
 21
121260.8138611373
 31
0.0
  0
LINE
  5
84
330
17
100
AcDbEntity
  8
BUILDING
100
AcDbLine
 10
1107148.027601113
 20
92412.47720513173
 30
0.0
 11
1107148.027601113
 21
121260.8138611373
 31
0.0
  0
LINE
  5
85
330
17
100
AcDbEntity
  8
BUILDING
100
AcDbLine
 10
1106148.027601113
 20
92412.47720513173
 30
0.0
 11
1106148.027601113
 21
121260.8138611373
 31
0.0
  0
LINE
  5
86
330
17
100
AcDbEntity
  8
BUILDING
100
AcDbLine
 10
1105148.027601113
 20
92412.47720513173
 30
0.0
 11
1105148.027601113
 21
121260.8138611373
 31
0.0
  0
LINE
  5
87
330
17
100
AcDbEntity
  8
BUILDING
100
AcDbLine
 10
1104148.027601113
 20
92412.47720513173
 30
0.0
 11
1104148.027601113
 21
121260.8138611373
 31
0.0
  0
LINE
  5
88
330
17
100
AcDbEntity
  8
BUILDING
100
AcDbLine
 10
1103148.027601113
 20
92412.47720513173
 30
0.0
 11
1103148.027601113
 21
121260.8138611373
 31
0.0
  0
LINE
  5
89
330
17
100
AcDbEntity
  8
BUILDING
100
AcDbLine
 10
1102148.027601113
 20
92412.47720513173
 30
0.0
 11
1102148.027601113
 21
121260.8138611373
 31
0.0
  0
LINE
  5
8A
330
17
100
AcDbEntity
  8
BUILDING
100
AcDbLine
 10
1101148.027601113
 20
92412.47720513173
 30
0.0
 11
1101148.027601113
 21
121260.8138611373
 31
0.0
  0
LINE
  5
8B
330
17
100
AcDbEntity
  8
BUILDING
100
AcDbLine
 10
1100148.027601113
 20
92412.47720513173
 30
0.0
 11
1100148.027601113
 21
121260.8138611373
 31
0.0
  0
LINE
  5
8C
330
17
100
AcDbEntity
  8
BUILDING
100
AcDbLine
 10
1099148.027601113
 20
92412.47720513173
 30
0.0
 11
1099148.027601113
 21
121260.8138611373
 31
0.0
  0
LINE
  5
8D
330
17
100
AcDbEntity
  8
BUILDING
100
AcDbLine
 10
1098148.027601113
 20
92412.47720513173
 30
0.0
 11
1098148.027601113
 21
121260.8138611373
 31
0.0
  0
LINE
  5
8E
330
17
100
AcDbEntity
  8
BUILDING
100
AcDbLine
 10
1097148.027601113
 20
92412.47720513173
 30
0.0
 11
1097148.027601113
 21
121260.8138611373
 31
0.0
  0
LINE
  5
8F
330
17
100
AcDbEntity
  8
BUILDING
100
AcDbLine
 10
1096148.027601113
 20
92412.47720513173
 30
0.0
 11
1096148.027601113
 21
121260.8138611373
 31
0.0
  0
LINE
  5
90
330
17
100
AcDbEntity
  8
BUILDING
100
AcDbLine
 10
1095148.027601113
 20
92412.47720513173
 30
0.0
 11
1095148.027601113
 21
121260.8138611373
 31
0.0
  0
LINE
  5
91
330
17
100
AcDbEntity
  8
BUILDING
100
AcDbLine
 10
1094148.027601113
 20
92412.47720513173
 30
0.0
 11
1094148.027601113
 21
121260.8138611373
 31
0.0
  0
LINE
  5
92
330
17
100
AcDbEntity
  8
BUILDING
100
AcDbLine
 10
1093148.027601113
 20
92412.47720513173
 30
0.0
 11
1093148.027601113
 21
121260.8138611373
 31
0.0
  0
LINE
  5
93
330
17
100
AcDbEntity
  8
BUILDING
100
AcDbLine
 10
1092148.027601113
 20
92412.47720513173
 30
0.0
 11
1092148.027601113
 21
121260.8138611373
 31
0.0
  0
LINE
  5
94
330
17
100
AcDbEntity
  8
BUILDING
100
AcDbLine
 10
1091148.027601113
 20
92412.47720513173
 30
0.0
 11
1091148.027601113
 21
121860.8138611373
 31
0.0
  0
LINE
  5
95
330
17
100
AcDbEntity
  8
BUILDING
100
AcDbLine
 10
1090148.027601113
 20
92412.47720513173
 30
0.0
 11
1090148.027601113
 21
121860.8138611373
 31
0.0
  0
LINE
  5
96
330
17
100
AcDbEntity
  8
BUILDING
100
AcDbLine
 10
1089148.027601113
 20
92412.47720513173
 30
0.0
 11
1089148.027601113
 21
122260.8138611373
 31
0.0
  0
LINE
  5
97
330
17
100
AcDbEntity
  8
BUILDING
100
AcDbLine
 10
1088148.027601113
 20
92412.47720513173
 30
0.0
 11
1088148.027601113
 21
121260.8138611373
 31
0.0
  0
LINE
  5
98
330
17
100
AcDbEntity
  8
BUILDING
100
AcDbLine
 10
1087148.027601113
 20
92412.47720513173
 30
0.0
 11
1087148.027601113
 21
121260.8138611373
 31
0.0
  0
LINE
  5
99
330
17
100
AcDbEntity
  8
BUILDING
100
AcDbLine
 10
1086148.027601113
 20
92412.47720513173
 30
0.0
 11
1086148.027601113
 21
121260.8138611373
 31
0.0
  0
LINE
  5
9A
330
17
100
AcDbEntity
  8
BUILDING
100
AcDbLine
 10
1085148.027601113
 20
92412.47720513173
 30
0.0
 11
1085148.027601113
 21
121260.8138611373
 31
0.0
  0
LINE
  5
9B
330
17
100
AcDbEntity
  8
BUILDING
100
AcDbLine
 10
1084148.027601113
 20
92412.47720513173
 30
0.0
 11
1084148.027601113
 21
121260.8138611373
 31
0.0
  0
LINE
  5
9C
330
17
100
AcDbEntity
  8
BUILDING
100
AcDbLine
 10
1083148.027601113
 20
92412.47720513173
 30
0.0
 11
1083148.027601113
 21
121260.8138611373
 31
0.0
  0
LINE
  5
9D
330
17
100
AcDbEntity
  8
BUILDING
100
AcDbLine
 10
1082148.027601113
 20
92412.47720513173
 30
0.0
 11
1082148.027601113
 21
121260.8138611373
 31
0.0
  0
LINE
  5
9E
330
17
100
AcDbEntity
  8
BUILDING
100
AcDbLine
 10
1081148.027601113
 20
92412.47720513173
 30
0.0
 11
1081148.027601113
 21
121260.8138611373
 31
0.0
  0
LINE
  5
9F
330
17
100
AcDbEntity
  8
BUILDING
100
AcDbLine
 10
1080148.027601113
 20
92412.47720513173
 30
0.0
 11
1080148.027601113
 21
121260.8138611373
 31
0.0
  0
LINE
  5
A0
330
17
100
AcDbEntity
  8
BUILDING
100
AcDbLine
 10
1079148.027601113
 20
92412.47720513173
 30
0.0
 11
1079148.027601113
 21
121260.8138611373
 31
0.0
  0
LINE
  5
A1
330
17
100
AcDbEntity
  8
BUILDING
100
AcDbLine
 10
1078148.027601113
 20
92412.47720513173
 30
0.0
 11
1078148.027601113
 21
121260.8138611373
 31
0.0
  0
LINE
  5
A2
330
17
100
AcDbEntity
  8
BUILDING
100
AcDbLine
 10
1077148.027601113
 20
92412.47720513173
 30
0.0
 11
1077148.027601113
 21
121260.8138611373
 31
0.0
  0
LINE
  5
A3
330
17
100
AcDbEntity
  8
BUILDING
100
AcDbLine
 10
1076148.027601113
 20
92412.47720513173
 30
0.0
 11
1076148.027601113
 21
121260.8138611373
 31
0.0
  0
LINE
  5
A4
330
17
100
AcDbEntity
  8
BUILDING
100
AcDbLine
 10
1075148.027601113
 20
92412.47720513173
 30
0.0
 11
1075148.027601113
 21
121260.8138611373
 31
0.0
  0
LINE
  5
A5
330
17
100
AcDbEntity
  8
BUILDING
100
AcDbLine
 10
1074148.027601113
 20
92412.47720513173
 30
0.0
 11
1074148.027601113
 21
121260.8138611373
 31
0.0
  0
LINE
  5
A6
330
17
100
AcDbEntity
  8
BUILDING
100
AcDbLine
 10
1073148.027601113
 20
92412.47720513173
 30
0.0
 11
1073148.027601113
 21
121260.8138611373
 31
0.0
  0
LINE
  5
A7
330
17
100
AcDbEntity
  8
BUILDING
100
AcDbLine
 10
1072148.027601113
 20
92412.47720513173
 30
0.0
 11
1072148.027601113
 21
125760.8138611373
 31
0.0
  0
LINE
  5
A8
330
17
100
AcDbEntity
  8
BUILDING
100
AcDbLine
 10
1071148.027601113
 20
92412.47720513173
 30
0.0
 11
1071148.027601113
 21
125760.8138611373
 31
0.0
  0
LINE
  5
A9
330
17
100
AcDbEntity
  8
BUILDING
100
AcDbLine
 10
1070148.027601113
 20
92412.47720513173
 30
0.0
 11
1070148.027601113
 21
125760.8138611373
 31
0.0
  0
LINE
  5
AA
330
17
100
AcDbEntity
  8
BUILDING
100
AcDbLine
 10
1069148.027601113
 20
92412.47720513173
 30
0.0
 11
1069148.027601113
 21
125760.8138611373
 31
0.0
  0
LINE
  5
AB
330
17
100
AcDbEntity
  8
BUILDING
100
AcDbLine
 10
1068148.027601113
 20
92412.47720513173
 30
0.0
 11
1068148.027601113
 21
125760.8138611373
 31
0.0
  0
LINE
  5
AC
330
17
100
AcDbEntity
  8
BUILDING
100
AcDbLine
 10
1067148.027601113
 20
92412.47720513173
 30
0.0
 11
1067148.027601113
 21
125760.8138611373
 31
0.0
  0
LINE
  5
AD
330
17
100
AcDbEntity
  8
BUILDING
100
AcDbLine
 10
1066148.027601113
 20
92412.47720513173
 30
0.0
 11
1066148.027601113
 21
125760.8138611373
 31
0.0
  0
LINE
  5
AE
330
17
100
AcDbEntity
  8
BUILDING
100
AcDbLine
 10
1065148.027601113
 20
92412.47720513173
 30
0.0
 11
1065148.027601113
 21
125760.8138611373
 31
0.0
  0
LINE
  5
AF
330
17
100
AcDbEntity
  8
BUILDING
100
AcDbLine
 10
1064148.027601113
 20
92412.47720513173
 30
0.0
 11
1064148.027601113
 21
125760.8138611373
 31
0.0
  0
LINE
  5
B0
330
17
100
AcDbEntity
  8
BUILDING
100
AcDbLine
 10
1063148.027601113
 20
92412.47720513173
 30
0.0
 11
1063148.027601113
 21
125760.8138611373
 31
0.0
  0
LINE
  5
B1
330
17
100
AcDbEntity
  8
BUILDING
100
AcDbLine
 10
1062148.027601113
 20
92412.47720513173
 30
0.0
 11
1062148.027601113
 21
125760.8138611373
 31
0.0
  0
LINE
  5
B2
330
17
100
AcDbEntity
  8
BUILDING
100
AcDbLine
 10
1061148.027601113
 20
92412.47720513173
 30
0.0
 11
1061148.027601113
 21
125760.8138611373
 31
0.0
  0
LINE
  5
B3
330
17
100
AcDbEntity
  8
BUILDING
100
AcDbLine
 10
1060148.027601113
 20
92412.47720513173
 30
0.0
 11
1060148.027601113
 21
125760.8138611373
 31
0.0
  0
LINE
  5
B4
330
17
100
AcDbEntity
  8
BUILDING
100
AcDbLine
 10
1059148.027601113
 20
92412.47720513173
 30
0.0
 11
1059148.027601113
 21
125760.8138611373
 31
0.0
  0
LINE
  5
B5
330
17
100
AcDbEntity
  8
BUILDING
100
AcDbLine
 10
1058148.027601113
 20
92412.47720513173
 30
0.0
 11
1058148.027601113
 21
125760.8138611373
 31
0.0
  0
LINE
  5
B6
330
17
100
AcDbEntity
  8
BUILDING
100
AcDbLine
 10
1057148.027601113
 20
92412.47720513173
 30
0.0
 11
1057148.027601113
 21
125760.8138611373
 31
0.0
  0
LINE
  5
B7
330
17
100
AcDbEntity
  8
BUILDING
100
AcDbLine
 10
1056148.027601113
 20
92412.47720513173
 30
0.0
 11
1056148.027601113
 21
121260.8138611373
 31
0.0
  0
LINE
  5
B8
330
17
100
AcDbEntity
  8
BUILDING
100
AcDbLine
 10
1055148.027601113
 20
92412.47720513173
 30
0.0
 11
1055148.027601113
 21
121260.8138611373
 31
0.0
  0
LINE
  5
B9
330
17
100
AcDbEntity
  8
BUILDING
100
AcDbLine
 10
1054148.027601113
 20
92412.47720513173
 30
0.0
 11
1054148.027601113
 21
121260.8138611373
 31
0.0
  0
LINE
  5
BA
330
17
100
AcDbEntity
  8
BUILDING
100
AcDbLine
 10
1053148.027601113
 20
92412.47720513173
 30
0.0
 11
1053148.027601113
 21
121260.8138611373
 31
0.0
  0
LINE
  5
BB
330
17
100
AcDbEntity
  8
BUILDING
100
AcDbLine
 10
1052148.027601113
 20
92412.47720513173
 30
0.0
 11
1052148.027601113
 21
121260.8138611373
 31
0.0
  0
LINE
  5
BC
330
17
100
AcDbEntity
  8
BUILDING
100
AcDbLine
 10
1051148.027601113
 20
92412.47720513173
 30
0.0
 11
1051148.027601113
 21
121260.8138611373
 31
0.0
  0
LINE
  5
BD
330
17
100
AcDbEntity
  8
BUILDING
100
AcDbLine
 10
1050148.027601113
 20
92412.47720513173
 30
0.0
 11
1050148.027601113
 21
121260.8138611373
 31
0.0
  0
LINE
  5
BE
330
17
100
AcDbEntity
  8
BUILDING
100
AcDbLine
 10
1048148.027601113
 20
92412.47720513173
 30
0.0
 11
1048148.027601113
 21
121260.8138611373
 31
0.0
  0
LINE
  5
BF
330
17
100
AcDbEntity
  8
BUILDING
100
AcDbLine
 10
1047148.027601113
 20
91696.30794042308
 30
0.0
 11
1047148.027601113
 21
121260.8138611373
 31
0.0
  0
LINE
  5
C0
330
17
100
AcDbEntity
  8
BUILDING
100
AcDbLine
 10
1046148.027601113
 20
91696.30794042308
 30
0.0
 11
1046148.027601113
 21
121260.8138611373
 31
0.0
  0
LINE
  5
C1
330
17
100
AcDbEntity
  8
BUILDING
100
AcDbLine
 10
1045148.027601113
 20
91696.30794042308
 30
0.0
 11
1045148.027601113
 21
121260.8138611373
 31
0.0
  0
LINE
  5
C2
330
17
100
AcDbEntity
  8
BUILDING
100
AcDbLine
 10
1044148.027601113
 20
91696.30794042308
 30
0.0
 11
1044148.027601113
 21
121260.8138611373
 31
0.0
  0
LINE
  5
C3
330
17
100
AcDbEntity
  8
BUILDING
100
AcDbLine
 10
1043148.027601113
 20
91696.30794042308
 30
0.0
 11
1043148.027601113
 21
121260.8138611373
 31
0.0
  0
LINE
  5
C4
330
17
100
AcDbEntity
  8
BUILDING
100
AcDbLine
 10
1042148.027601113
 20
91696.30794042308
 30
0.0
 11
1042148.027601113
 21
121260.8138611373
 31
0.0
  0
LINE
  5
C5
330
17
100
AcDbEntity
  8
BUILDING
100
AcDbLine
 10
1041148.027601113
 20
91696.30794042308
 30
0.0
 11
1041148.027601113
 21
121260.8138611373
 31
0.0
  0
LINE
  5
C6
330
17
100
AcDbEntity
  8
BUILDING
100
AcDbLine
 10
1040148.027601113
 20
91696.30794042308
 30
0.0
 11
1040148.027601113
 21
121260.8138611373
 31
0.0
  0
LINE
  5
C7
330
17
100
AcDbEntity
  8
BUILDING
100
AcDbLine
 10
1049148.027601113
 20
90109.1505171457
 30
0.0
 11
1049148.027601113
 21
80930.81386115943
 31
0.0
  0
LINE
  5
C8
330
17
100
AcDbEntity
  8
BUILDING
100
AcDbLine
 10
1112148.027601113
 20
90109.1505171457
 30
0.0
 11
1112148.027601113
 21
61260.81386114011
 31
0.0
  0
LINE
  5
C9
330
17
100
AcDbEntity
  8
BUILDING
100
AcDbLine
 10
1111148.027601113
 20
90109.1505171457
 30
0.0
 11
1111148.027601113
 21
61260.81386114011
 31
0.0
  0
LINE
  5
CA
330
17
100
AcDbEntity
  8
BUILDING
100
AcDbLine
 10
1110148.027601113
 20
90109.1505171457
 30
0.0
 11
1110148.027601113
 21
61260.81386114011
 31
0.0
  0
LINE
  5
CB
330
17
100
AcDbEntity
  8
BUILDING
100
AcDbLine
 10
1109148.027601113
 20
90109.1505171457
 30
0.0
 11
1109148.027601113
 21
61260.81386114011
 31
0.0
  0
LINE
  5
CC
330
17
100
AcDbEntity
  8
BUILDING
100
AcDbLine
 10
1108148.027601113
 20
90109.1505171457
 30
0.0
 11
1108148.027601113
 21
61260.81386114011
 31
0.0
  0
LINE
  5
CD
330
17
100
AcDbEntity
  8
BUILDING
100
AcDbLine
 10
1107148.027601113
 20
90109.1505171457
 30
0.0
 11
1107148.027601113
 21
61260.81386114011
 31
0.0
  0
LINE
  5
CE
330
17
100
AcDbEntity
  8
BUILDING
100
AcDbLine
 10
1106148.027601113
 20
90109.1505171457
 30
0.0
 11
1106148.027601113
 21
61260.81386114011
 31
0.0
  0
LINE
  5
CF
330
17
100
AcDbEntity
  8
BUILDING
100
AcDbLine
 10
1105148.027601113
 20
90109.1505171457
 30
0.0
 11
1105148.027601113
 21
61260.81386114104
 31
0.0
  0
LINE
  5
D0
330
17
100
AcDbEntity
  8
BUILDING
100
AcDbLine
 10
1104148.027601113
 20
90109.1505171457
 30
0.0
 11
1104148.027601113
 21
61260.81386114104
 31
0.0
  0
LINE
  5
D1
330
17
100
AcDbEntity
  8
BUILDING
100
AcDbLine
 10
1103148.027601113
 20
90109.1505171457
 30
0.0
 11
1103148.027601113
 21
61260.81386114104
 31
0.0
  0
LINE
  5
D2
330
17
100
AcDbEntity
  8
BUILDING
100
AcDbLine
 10
1102148.027601113
 20
90109.1505171457
 30
0.0
 11
1102148.027601113
 21
61260.81386114104
 31
0.0
  0
LINE
  5
D3
330
17
100
AcDbEntity
  8
BUILDING
100
AcDbLine
 10
1101148.027601113
 20
90109.1505171457
 30
0.0
 11
1101148.027601113
 21
61260.81386114104
 31
0.0
  0
LINE
  5
D4
330
17
100
AcDbEntity
  8
BUILDING
100
AcDbLine
 10
1100148.027601113
 20
90109.1505171457
 30
0.0
 11
1100148.027601113
 21
61260.81386114104
 31
0.0
  0
LINE
  5
D5
330
17
100
AcDbEntity
  8
BUILDING
100
AcDbLine
 10
1099148.027601113
 20
90109.1505171457
 30
0.0
 11
1099148.027601113
 21
61260.81386114104
 31
0.0
  0
LINE
  5
D6
330
17
100
AcDbEntity
  8
BUILDING
100
AcDbLine
 10
1098148.027601113
 20
90109.1505171457
 30
0.0
 11
1098148.027601113
 21
60660.81386114104
 31
0.0
  0
LINE
  5
D7
330
17
100
AcDbEntity
  8
BUILDING
100
AcDbLine
 10
1097148.027601113
 20
90109.1505171457
 30
0.0
 11
1097148.027601113
 21
61260.81386114011
 31
0.0
  0
LINE
  5
D8
330
17
100
AcDbEntity
  8
BUILDING
100
AcDbLine
 10
1096148.027601113
 20
90109.1505171457
 30
0.0
 11
1096148.027601113
 21
61260.81386114011
 31
0.0
  0
LINE
  5
D9
330
17
100
AcDbEntity
  8
BUILDING
100
AcDbLine
 10
1095148.027601113
 20
90109.1505171457
 30
0.0
 11
1095148.027601113
 21
61260.81386114011
 31
0.0
  0
LINE
  5
DA
330
17
100
AcDbEntity
  8
BUILDING
100
AcDbLine
 10
1094148.027601113
 20
90109.1505171457
 30
0.0
 11
1094148.027601113
 21
61260.81386114011
 31
0.0
  0
LINE
  5
DB
330
17
100
AcDbEntity
  8
BUILDING
100
AcDbLine
 10
1093148.027601113
 20
90109.1505171457
 30
0.0
 11
1093148.027601113
 21
61260.81386114011
 31
0.0
  0
LINE
  5
DC
330
17
100
AcDbEntity
  8
BUILDING
100
AcDbLine
 10
1092148.027601113
 20
90109.1505171457
 30
0.0
 11
1092148.027601113
 21
61260.81386114011
 31
0.0
  0
LINE
  5
DD
330
17
100
AcDbEntity
  8
BUILDING
100
AcDbLine
 10
1091148.027601113
 20
90109.1505171457
 30
0.0
 11
1091148.027601113
 21
61260.81386114011
 31
0.0
  0
LINE
  5
DE
330
17
100
AcDbEntity
  8
BUILDING
100
AcDbLine
 10
1090148.027601113
 20
90109.1505171457
 30
0.0
 11
1090148.027601113
 21
61260.81386114011
 31
0.0
  0
LINE
  5
DF
330
17
100
AcDbEntity
  8
BUILDING
100
AcDbLine
 10
1089148.027601113
 20
90109.1505171457
 30
0.0
 11
1089148.027601113
 21
61260.81386114011
 31
0.0
  0
LINE
  5
E0
330
17
100
AcDbEntity
  8
BUILDING
100
AcDbLine
 10
1088148.027601113
 20
90109.1505171457
 30
0.0
 11
1088148.027601113
 21
61260.81386114011
 31
0.0
  0
LINE
  5
E1
330
17
100
AcDbEntity
  8
BUILDING
100
AcDbLine
 10
1087148.027601113
 20
90109.1505171457
 30
0.0
 11
1087148.027601113
 21
61260.81386114011
 31
0.0
  0
LINE
  5
E2
330
17
100
AcDbEntity
  8
BUILDING
100
AcDbLine
 10
1086148.027601113
 20
90109.1505171457
 30
0.0
 11
1086148.027601113
 21
61260.81386114011
 31
0.0
  0
LINE
  5
E3
330
17
100
AcDbEntity
  8
BUILDING
100
AcDbLine
 10
1085148.027601113
 20
90109.1505171457
 30
0.0
 11
1085148.027601113
 21
61260.81386114011
 31
0.0
  0
LINE
  5
E4
330
17
100
AcDbEntity
  8
BUILDING
100
AcDbLine
 10
1084148.027601113
 20
90109.1505171457
 30
0.0
 11
1084148.027601113
 21
61260.81386114011
 31
0.0
  0
LINE
  5
E5
330
17
100
AcDbEntity
  8
BUILDING
100
AcDbLine
 10
1083148.027601113
 20
90109.1505171457
 30
0.0
 11
1083148.027601113
 21
61260.81386114011
 31
0.0
  0
LINE
  5
E6
330
17
100
AcDbEntity
  8
BUILDING
100
AcDbLine
 10
1082148.027601113
 20
90109.1505171457
 30
0.0
 11
1082148.027601113
 21
61260.81386114011
 31
0.0
  0
LINE
  5
E7
330
17
100
AcDbEntity
  8
BUILDING
100
AcDbLine
 10
1081148.027601113
 20
90109.1505171457
 30
0.0
 11
1081148.027601113
 21
61260.81386114011
 31
0.0
  0
LINE
  5
E8
330
17
100
AcDbEntity
  8
BUILDING
100
AcDbLine
 10
1080148.027601113
 20
90109.1505171457
 30
0.0
 11
1080148.027601113
 21
61260.81386114011
 31
0.0
  0
LINE
  5
E9
330
17
100
AcDbEntity
  8
BUILDING
100
AcDbLine
 10
1079148.027601113
 20
90109.1505171457
 30
0.0
 11
1079148.027601113
 21
61260.81386114011
 31
0.0
  0
LINE
  5
EA
330
17
100
AcDbEntity
  8
BUILDING
100
AcDbLine
 10
1078148.027601113
 20
90109.1505171457
 30
0.0
 11
1078148.027601113
 21
61260.81386114011
 31
0.0
  0
LINE
  5
EB
330
17
100
AcDbEntity
  8
BUILDING
100
AcDbLine
 10
1077148.027601113
 20
90109.1505171457
 30
0.0
 11
1077148.027601113
 21
61260.81386114011
 31
0.0
  0
LINE
  5
EC
330
17
100
AcDbEntity
  8
BUILDING
100
AcDbLine
 10
1076148.027601113
 20
90109.1505171457
 30
0.0
 11
1076148.027601113
 21
61260.81386114011
 31
0.0
  0
LINE
  5
ED
330
17
100
AcDbEntity
  8
BUILDING
100
AcDbLine
 10
1075148.027601113
 20
90109.1505171457
 30
0.0
 11
1075148.027601113
 21
61260.81386114011
 31
0.0
  0
LINE
  5
EE
330
17
100
AcDbEntity
  8
BUILDING
100
AcDbLine
 10
1074148.027601113
 20
90109.1505171457
 30
0.0
 11
1074148.027601113
 21
61260.81386114011
 31
0.0
  0
LINE
  5
EF
330
17
100
AcDbEntity
  8
BUILDING
100
AcDbLine
 10
1073148.027601113
 20
90109.1505171457
 30
0.0
 11
1073148.027601113
 21
61260.81386114011
 31
0.0
  0
LINE
  5
F0
330
17
100
AcDbEntity
  8
BUILDING
100
AcDbLine
 10
1072148.027601113
 20
90109.1505171457
 30
0.0
 11
1072148.027601113
 21
61260.81386114104
 31
0.0
  0
LINE
  5
F1
330
17
100
AcDbEntity
  8
BUILDING
100
AcDbLine
 10
1071148.027601113
 20
90109.1505171457
 30
0.0
 11
1071148.027601113
 21
61260.81386114104
 31
0.0
  0
LINE
  5
F2
330
17
100
AcDbEntity
  8
BUILDING
100
AcDbLine
 10
1070148.027601113
 20
90109.1505171457
 30
0.0
 11
1070148.027601113
 21
61260.81386114104
 31
0.0
  0
LINE
  5
F3
330
17
100
AcDbEntity
  8
BUILDING
100
AcDbLine
 10
1069148.027601113
 20
90109.1505171457
 30
0.0
 11
1069148.027601113
 21
61260.81386114104
 31
0.0
  0
LINE
  5
F4
330
17
100
AcDbEntity
  8
BUILDING
100
AcDbLine
 10
1068148.027601113
 20
90109.1505171457
 30
0.0
 11
1068148.027601113
 21
61260.81386114104
 31
0.0
  0
LINE
  5
F5
330
17
100
AcDbEntity
  8
BUILDING
100
AcDbLine
 10
1067148.027601113
 20
90109.1505171457
 30
0.0
 11
1067148.027601113
 21
61260.81386114104
 31
0.0
  0
LINE
  5
F6
330
17
100
AcDbEntity
  8
BUILDING
100
AcDbLine
 10
1066148.027601113
 20
90109.1505171457
 30
0.0
 11
1066148.027601113
 21
61260.81386114104
 31
0.0
  0
LINE
  5
F7
330
17
100
AcDbEntity
  8
BUILDING
100
AcDbLine
 10
1065148.027601113
 20
90109.1505171457
 30
0.0
 11
1065148.027601113
 21
60660.81386114104
 31
0.0
  0
LINE
  5
F8
330
17
100
AcDbEntity
  8
BUILDING
100
AcDbLine
 10
1064148.027601113
 20
90109.1505171457
 30
0.0
 11
1064148.027601113
 21
58260.81386114011
 31
0.0
  0
LINE
  5
F9
330
17
100
AcDbEntity
  8
BUILDING
100
AcDbLine
 10
1063148.027601113
 20
90109.1505171457
 30
0.0
 11
1063148.027601113
 21
58260.81386114011
 31
0.0
  0
LINE
  5
FA
330
17
100
AcDbEntity
  8
BUILDING
100
AcDbLine
 10
1062148.027601113
 20
90109.1505171457
 30
0.0
 11
1062148.027601113
 21
58260.81386114011
 31
0.0
  0
LINE
  5
FB
330
17
100
AcDbEntity
  8
BUILDING
100
AcDbLine
 10
1061148.027601113
 20
90109.1505171457
 30
0.0
 11
1061148.027601113
 21
58260.81386114011
 31
0.0
  0
LINE
  5
FC
330
17
100
AcDbEntity
  8
BUILDING
100
AcDbLine
 10
1060148.027601113
 20
90109.1505171457
 30
0.0
 11
1060148.027601113
 21
58260.81386114011
 31
0.0
  0
LINE
  5
FD
330
17
100
AcDbEntity
  8
BUILDING
100
AcDbLine
 10
1059148.027601113
 20
90109.1505171457
 30
0.0
 11
1059148.027601113
 21
58260.81386114011
 31
0.0
  0
LINE
  5
FE
330
17
100
AcDbEntity
  8
BUILDING
100
AcDbLine
 10
1058148.027601113
 20
90109.1505171457
 30
0.0
 11
1058148.027601113
 21
58260.81386114011
 31
0.0
  0
LINE
  5
FF
330
17
100
AcDbEntity
  8
BUILDING
100
AcDbLine
 10
1057148.027601113
 20
90109.1505171457
 30
0.0
 11
1057148.027601113
 21
58260.81386114011
 31
0.0
  0
LINE
  5
100
330
17
100
AcDbEntity
  8
BUILDING
100
AcDbLine
 10
1056148.027601113
 20
90109.1505171457
 30
0.0
 11
1056148.027601113
 21
58260.81386114011
 31
0.0
  0
LINE
  5
101
330
17
100
AcDbEntity
  8
BUILDING
100
AcDbLine
 10
1055148.027601113
 20
90109.1505171457
 30
0.0
 11
1055148.027601113
 21
80930.81386115943
 31
0.0
  0
LINE
  5
102
330
17
100
AcDbEntity
  8
BUILDING
100
AcDbLine
 10
1054148.027601113
 20
90109.1505171457
 30
0.0
 11
1054148.027601113
 21
80930.81386115943
 31
0.0
  0
LINE
  5
103
330
17
100
AcDbEntity
  8
BUILDING
100
AcDbLine
 10
1053148.027601113
 20
90109.1505171457
 30
0.0
 11
1053148.027601113
 21
80930.81386115943
 31
0.0
  0
LINE
  5
104
330
17
100
AcDbEntity
  8
BUILDING
100
AcDbLine
 10
1052148.027601113
 20
90109.1505171457
 30
0.0
 11
1052148.027601113
 21
80930.81386115943
 31
0.0
  0
LINE
  5
105
330
17
100
AcDbEntity
  8
BUILDING
100
AcDbLine
 10
1051148.027601113
 20
90109.1505171457
 30
0.0
 11
1051148.027601113
 21
80930.81386115943
 31
0.0
  0
LINE
  5
106
330
17
100
AcDbEntity
  8
BUILDING
100
AcDbLine
 10
1050148.027601113
 20
90109.1505171457
 30
0.0
 11
1050148.027601113
 21
80930.81386115943
 31
0.0
  0
LINE
  5
107
330
17
100
AcDbEntity
  8
BUILDING
100
AcDbLine
 10
1048148.027601113
 20
90109.1505171457
 30
0.0
 11
1048148.027601113
 21
80930.81386115943
 31
0.0
  0
LINE
  5
108
330
17
100
AcDbEntity
  8
BUILDING
100
AcDbLine
 10
1039148.027601113
 20
90825.31978185434
 30
0.0
 11
1039148.027601113
 21
80930.81386115943
 31
0.0
  0
LINE
  5
109
330
17
100
AcDbEntity
  8
BUILDING
100
AcDbLine
 10
1040148.027601113
 20
90825.31978185434
 30
0.0
 11
1040148.027601113
 21
80930.81386115943
 31
0.0
  0
LINE
  5
10A
330
17
100
AcDbEntity
  8
BUILDING
100
AcDbLine
 10
1041148.027601113
 20
90825.31978185434
 30
0.0
 11
1041148.027601113
 21
80930.81386115943
 31
0.0
  0
LINE
  5
10B
330
17
100
AcDbEntity
  8
BUILDING
100
AcDbLine
 10
1042148.027601113
 20
90825.31978185434
 30
0.0
 11
1042148.027601113
 21
80930.81386115943
 31
0.0
  0
LINE
  5
10C
330
17
100
AcDbEntity
  8
BUILDING
100
AcDbLine
 10
1043148.027601113
 20
90825.31978185434
 30
0.0
 11
1043148.027601113
 21
80930.81386115943
 31
0.0
  0
LINE
  5
10D
330
17
100
AcDbEntity
  8
BUILDING
100
AcDbLine
 10
1044148.027601113
 20
90825.31978185434
 30
0.0
 11
1044148.027601113
 21
80930.81386115943
 31
0.0
  0
LINE
  5
10E
330
17
100
AcDbEntity
  8
BUILDING
100
AcDbLine
 10
1045148.027601113
 20
90825.31978185434
 30
0.0
 11
1045148.027601113
 21
80930.81386115943
 31
0.0
  0
LINE
  5
10F
330
17
100
AcDbEntity
  8
BUILDING
100
AcDbLine
 10
1046148.027601113
 20
90825.31978185434
 30
0.0
 11
1046148.027601113
 21
80930.81386115943
 31
0.0
  0
LINE
  5
110
330
17
100
AcDbEntity
  8
BUILDING
100
AcDbLine
 10
1047148.027601113
 20
90825.31978185434
 30
0.0
 11
1047148.027601113
 21
80930.81386115943
 31
0.0
  0
LINE
  5
111
330
17
100
AcDbEntity
  8
BUILDING
100
AcDbLine
 10
1121148.027601113
 20
90825.31978185434
 30
0.0
 11
1121148.027601113
 21
61260.81386114011
 31
0.0
  0
LINE
  5
112
330
17
100
AcDbEntity
  8
BUILDING
100
AcDbLine
 10
1120148.027601113
 20
90825.31978185434
 30
0.0
 11
1120148.027601113
 21
61260.81386114011
 31
0.0
  0
LINE
  5
113
330
17
100
AcDbEntity
  8
BUILDING
100
AcDbLine
 10
1119148.027601113
 20
90825.31978185434
 30
0.0
 11
1119148.027601113
 21
61260.81386114011
 31
0.0
  0
LINE
  5
114
330
17
100
AcDbEntity
  8
BUILDING
100
AcDbLine
 10
1118148.027601113
 20
90825.31978185434
 30
0.0
 11
1118148.027601113
 21
61260.81386114011
 31
0.0
  0
LINE
  5
115
330
17
100
AcDbEntity
  8
BUILDING
100
AcDbLine
 10
1117148.027601113
 20
90825.31978185434
 30
0.0
 11
1117148.027601113
 21
61260.81386114011
 31
0.0
  0
LINE
  5
116
330
17
100
AcDbEntity
  8
BUILDING
100
AcDbLine
 10
1116148.027601113
 20
90825.31978185434
 30
0.0
 11
1116148.027601113
 21
61260.81386114011
 31
0.0
  0
LINE
  5
117
330
17
100
AcDbEntity
  8
BUILDING
100
AcDbLine
 10
1115148.027601113
 20
90825.31978185434
 30
0.0
 11
1115148.027601113
 21
61260.81386114011
 31
0.0
  0
LINE
  5
118
330
17
100
AcDbEntity
  8
BUILDING
100
AcDbLine
 10
1114148.027601113
 20
90825.31978185434
 30
0.0
 11
1114148.027601113
 21
61260.81386114011
 31
0.0
  0
LINE
  5
119
330
17
100
AcDbEntity
  8
BUILDING
100
AcDbLine
 10
1113148.027601113
 20
90109.1505171457
 30
0.0
 11
1113148.027601113
 21
61260.81386114011
 31
0.0
  0
LINE
  5
11A
330
17
100
AcDbEntity
  8
BUILDING
100
AcDbLine
 10
1122148.027601117
 20
95020.81386114826
 30
0.0
 11
1126648.027601117
 21
95020.81386114826
 31
0.0
  0
LINE
  5
11B
330
17
100
AcDbEntity
  8
BUILDING
100
AcDbLine
 10
1122148.027601117
 20
96020.81386114826
 30
0.0
 11
1126648.027601117
 21
96020.81386114826
 31
0.0
  0
LINE
  5
11C
330
17
100
AcDbEntity
  8
BUILDING
100
AcDbLine
 10
1122148.027601117
 20
97020.81386114826
 30
0.0
 11
1126648.027601117
 21
97020.81386114826
 31
0.0
  0
LINE
  5
11D
330
17
100
AcDbEntity
  8
BUILDING
100
AcDbLine
 10
1122148.027601117
 20
98020.81386114826
 30
0.0
 11
1126648.027601117
 21
98020.81386114826
 31
0.0
  0
LINE
  5
11E
330
17
100
AcDbEntity
  8
BUILDING
100
AcDbLine
 10
1122148.027601117
 20
99020.81386114826
 30
0.0
 11
1126648.027601117
 21
99020.81386114826
 31
0.0
  0
LINE
  5
11F
330
17
100
AcDbEntity
  8
BUILDING
100
AcDbLine
 10
1122148.027601117
 20
100020.8138611483
 30
0.0
 11
1126648.027601117
 21
100020.8138611483
 31
0.0
  0
LINE
  5
120
330
17
100
AcDbEntity
  8
BUILDING
100
AcDbLine
 10
1122148.027601117
 20
101020.8138611483
 30
0.0
 11
1126648.027601117
 21
101020.8138611483
 31
0.0
  0
LINE
  5
121
330
17
100
AcDbEntity
  8
BUILDING
100
AcDbLine
 10
1122148.027601117
 20
102020.8138611483
 30
0.0
 11
1126648.027601117
 21
102020.8138611483
 31
0.0
  0
LINE
  5
122
330
17
100
AcDbEntity
  8
BUILDING
100
AcDbLine
 10
1122148.027601117
 20
103020.8138611483
 30
0.0
 11
1126648.027601117
 21
103020.8138611483
 31
0.0
  0
LINE
  5
123
330
17
100
AcDbEntity
  8
BUILDING
100
AcDbLine
 10
1122148.027601117
 20
104020.8138611483
 30
0.0
 11
1126648.027601117
 21
104020.8138611483
 31
0.0
  0
LINE
  5
124
330
17
100
AcDbEntity
  8
BUILDING
100
AcDbLine
 10
1122148.027601117
 20
105020.8138611483
 30
0.0
 11
1126648.027601117
 21
105020.8138611483
 31
0.0
  0
LINE
  5
125
330
17
100
AcDbEntity
  8
BUILDING
100
AcDbLine
 10
1122148.027601117
 20
106020.8138611483
 30
0.0
 11
1126648.027601117
 21
106020.8138611483
 31
0.0
  0
LINE
  5
126
330
17
100
AcDbEntity
  8
BUILDING
100
AcDbLine
 10
1122148.027601117
 20
107020.8138611483
 30
0.0
 11
1126648.027601117
 21
107020.8138611483
 31
0.0
  0
LINE
  5
127
330
17
100
AcDbEntity
  8
BUILDING
100
AcDbLine
 10
1056048.034549262
 20
125760.8138611373
 30
0.0
 11
1072748.027601117
 21
125760.8138611373
 31
0.0
  0
LINE
  5
128
330
17
100
AcDbEntity
  8
BUILDING
100
AcDbLine
 10
1072748.027601117
 20
125760.8138611373
 30
0.0
 11
1072748.027601117
 21
121260.8138611373
 31
0.0
  0
LINE
  5
129
330
17
100
AcDbEntity
  8
BUILDING
100
AcDbLine
 10
1072748.027601117
 20
121260.8138611373
 30
0.0
 11
1056048.034549262
 21
121260.8138611373
 31
0.0
  0
LINE
  5
12A
330
17
100
AcDbEntity
  8
BUILDING
100
AcDbLine
 10
1056048.034549262
 20
121260.8138611373
 30
0.0
 11
1056048.034549262
 21
125760.8138611373
 31
0.0
  0
LINE
  5
12B
330
17
100
AcDbEntity
  8
BUILDING
100
AcDbLine
 10
1055782.069539317
 20
61260.81386114104
 30
0.0
 11
1064498.027601119
 21
61260.81386114104
 31
0.0
  0
LINE
  5
12C
330
17
100
AcDbEntity
  8
BUILDING
100
AcDbLine
 10
1064498.027601119
 20
61260.81386114104
 30
0.0
 11
1064498.027601119
 21
58260.81386114104
 31
0.0
  0
LINE
  5
12D
330
17
100
AcDbEntity
  8
BUILDING
100
AcDbLine
 10
1064498.027601119
 20
58260.81386114104
 30
0.0
 11
1055782.069539317
 21
58260.81386114104
 31
0.0
  0
LINE
  5
12E
330
17
100
AcDbEntity
  8
BUILDING
100
AcDbLine
 10
1055782.069539317
 20
58260.81386114104
 30
0.0
 11
1055782.069539317
 21
61260.81386114104
 31
0.0
  0
LINE
  5
12F
330
17
100
AcDbEntity
  8
BUILDING
100
AcDbLine
 10
1122148.027601117
 20
108020.8138611483
 30
0.0
 11
1126648.027601117
 21
108020.8138611483
 31
0.0
  0
LINE
  5
130
330
17
100
AcDbEntity
  8
BUILDING
100
AcDbLine
 10
1126648.027601117
 20
108020.8138611483
 30
0.0
 11
1126648.027601117
 21
94755.8138686298
 31
0.0
  0
LINE
  5
131
330
17
100
AcDbEntity
  8
BUILDING
100
AcDbLine
 10
1126648.027601117
 20
94755.8138686298
 30
0.0
 11
1122148.027601117
 21
94755.8138686298
 31
0.0
  0
LINE
  5
132
330
17
100
AcDbEntity
  8
BUILDING
100
AcDbLine
 10
1122148.027601117
 20
94755.8138686298
 30
0.0
 11
1122148.027601117
 21
108020.8138611483
 31
0.0
  0
LINE
  5
133
330
17
100
AcDbEntity
  8
BUILDING
100
AcDbLine
 10
1038148.027601113
 20
96110.80905626142
 30
0.0
 11
1037548.027601113
 21
96110.80905626144
 31
0.0
  0
LINE
  5
134
330
17
100
AcDbEntity
  8
BUILDING
100
AcDbLine
 10
1064483.173657768
 20
61260.81386114102
 30
0.0
 11
1066083.19532394
 21
61260.81386114102
 31
0.0
  0
LINE
  5
135
330
17
100
AcDbEntity
  8
BUILDING
100
AcDbLine
 10
1066083.19532394
 20
61260.81386114102
 30
0.0
 11
1066083.19532394
 21
60660.81386114102
 31
0.0
  0
LINE
  5
136
330
17
100
AcDbEntity
  8
BUILDING
100
AcDbLine
 10
1066083.19532394
 20
60660.81386114102
 30
0.0
 11
1064483.173657768
 21
60660.81386114102
 31
0.0
  0
LINE
  5
137
330
17
100
AcDbEntity
  8
BUILDING
100
AcDbLine
 10
1064483.173657768
 20
60660.81386114102
 30
0.0
 11
1064483.173657768
 21
61260.81386114102
 31
0.0
  0
LINE
  5
138
330
17
100
AcDbEntity
  8
BUILDING
100
AcDbLine
 10
1097483.173657769
 20
61260.81386114105
 30
0.0
 11
1099083.195323941
 21
61260.81386114104
 31
0.0
  0
LINE
  5
139
330
17
100
AcDbEntity
  8
BUILDING
100
AcDbLine
 10
1099083.195323941
 20
61260.81386114104
 30
0.0
 11
1099083.195323941
 21
60660.81386114104
 31
0.0
  0
LINE
  5
13A
330
17
100
AcDbEntity
  8
BUILDING
100
AcDbLine
 10
1099083.195323941
 20
60660.81386114104
 30
0.0
 11
1097483.173657769
 21
60660.81386114105
 31
0.0
  0
LINE
  5
13B
330
17
100
AcDbEntity
  8
BUILDING
100
AcDbLine
 10
1097483.173657769
 20
60660.81386114105
 30
0.0
 11
1097483.173657769
 21
61260.81386114105
 31
0.0
  0
LINE
  5
13C
330
17
100
AcDbEntity
  8
BUILDING
100
AcDbLine
 10
1037548.027601113
 20
95060.80905626142
 30
0.0
 11
1037548.027601113
 21
96660.75912587145
 31
0.0
  0
LINE
  5
13D
330
17
100
AcDbEntity
  8
BUILDING
100
AcDbLine
 10
1037548.027601113
 20
96660.75912587145
 30
0.0
 11
1038148.027601113
 21
96660.75912587142
 31
0.0
  0
LINE
  5
13E
330
17
100
AcDbEntity
  8
BUILDING
100
AcDbLine
 10
1038148.027601113
 20
96660.75912587142
 30
0.0
 11
1038148.027601113
 21
95060.8090562614
 31
0.0
  0
LINE
  5
13F
330
17
100
AcDbEntity
  8
BUILDING
100
AcDbLine
 10
1038148.027601113
 20
95060.8090562614
 30
0.0
 11
1037548.027601113
 21
95060.80905626142
 31
0.0
  0
LINE
  5
140
330
17
100
AcDbEntity
  8
BUILDING
100
AcDbLine
 10
1055782.069539317
 20
61260.81386114104
 30
0.0
 11
1122148.027601117
 21
61260.81386114104
 31
0.0
  0
LINE
  5
141
330
17
100
AcDbEntity
  8
BUILDING
100
AcDbLine
 10
1122148.027601117
 20
61260.81386114104
 30
0.0
 11
1122148.027601117
 21
61010.81386114104
 31
0.0
  0
LINE
  5
142
330
17
100
AcDbEntity
  8
BUILDING
100
AcDbLine
 10
1122148.027601117
 20
61010.81386114104
 30
0.0
 11
1055782.069539317
 21
61010.81386114104
 31
0.0
  0
LINE
  5
143
330
17
100
AcDbEntity
  8
BUILDING
100
AcDbLine
 10
1055782.069539317
 20
61010.81386114104
 30
0.0
 11
1055782.069539317
 21
61260.81386114104
 31
0.0
  0
LINE
  5
144
330
17
100
AcDbEntity
  8
BUILDING
100
AcDbLine
 10
1038148.027601113
 20
121510.8138611373
 30
0.0
 11
1122148.027601117
 21
121510.8138611373
 31
0.0
  0
LINE
  5
145
330
17
100
AcDbEntity
  8
BUILDING
100
AcDbLine
 10
1122148.027601117
 20
121510.8138611373
 30
0.0
 11
1122148.027601117
 21
121260.8138611373
 31
0.0
  0
LINE
  5
146
330
17
100
AcDbEntity
  8
BUILDING
100
AcDbLine
 10
1122148.027601117
 20
121260.8138611373
 30
0.0
 11
1038148.027601113
 21
121260.8138611373
 31
0.0
  0
LINE
  5
147
330
17
100
AcDbEntity
  8
BUILDING
100
AcDbLine
 10
1038148.027601113
 20
121260.8138611373
 30
0.0
 11
1038148.027601113
 21
121510.8138611373
 31
0.0
  0
LINE
  5
148
330
17
100
AcDbEntity
  8
BUILDING
100
AcDbLine
 10
1080843.02760113
 20
121330.8138611374
 30
0.0
 11
1080953.02760113
 21
121330.8138611374
 31
0.0
  0
LINE
  5
149
330
17
100
AcDbEntity
  8
BUILDING
100
AcDbLine
 10
1080953.02760113
 20
121330.8138611374
 30
0.0
 11
1080953.02760113
 21
121440.8138611374
 31
0.0
  0
LINE
  5
14A
330
17
100
AcDbEntity
  8
BUILDING
100
AcDbLine
 10
1080953.02760113
 20
121440.8138611374
 30
0.0
 11
1080843.02760113
 21
121440.8138611374
 31
0.0
  0
LINE
  5
14B
330
17
100
AcDbEntity
  8
BUILDING
100
AcDbLine
 10
1080843.02760113
 20
121440.8138611374
 30
0.0
 11
1080843.02760113
 21
121330.8138611374
 31
0.0
  0
LINE
  5
14C
330
17
100
AcDbEntity
  8
BUILDING
100
AcDbLine
 10
1080843.02760113
 20
61080.8138611411
 30
0.0
 11
1080953.02760113
 21
61080.8138611411
 31
0.0
  0
LINE
  5
14D
330
17
100
AcDbEntity
  8
BUILDING
100
AcDbLine
 10
1080953.02760113
 20
61080.8138611411
 30
0.0
 11
1080953.02760113
 21
61190.8138611411
 31
0.0
  0
LINE
  5
14E
330
17
100
AcDbEntity
  8
BUILDING
100
AcDbLine
 10
1080953.02760113
 20
61190.8138611411
 30
0.0
 11
1080843.02760113
 21
61190.8138611411
 31
0.0
  0
LINE
  5
14F
330
17
100
AcDbEntity
  8
BUILDING
100
AcDbLine
 10
1080843.02760113
 20
61190.8138611411
 30
0.0
 11
1080843.02760113
 21
61080.8138611411
 31
0.0
  0
LINE
  5
150
330
17
100
AcDbEntity
  8
BUILDING
100
AcDbLine
 10
1089093.027601113
 20
61080.8138611411
 30
0.0
 11
1089203.027601113
 21
61080.8138611411
 31
0.0
  0
LINE
  5
151
330
17
100
AcDbEntity
  8
BUILDING
100
AcDbLine
 10
1089203.027601113
 20
61080.8138611411
 30
0.0
 11
1089203.027601113
 21
61190.8138611411
 31
0.0
  0
LINE
  5
152
330
17
100
AcDbEntity
  8
BUILDING
100
AcDbLine
 10
1089203.027601113
 20
61190.8138611411
 30
0.0
 11
1089093.027601113
 21
61190.8138611411
 31
0.0
  0
LINE
  5
153
330
17
100
AcDbEntity
  8
BUILDING
100
AcDbLine
 10
1089093.027601113
 20
61190.8138611411
 30
0.0
 11
1089093.027601113
 21
61080.8138611411
 31
0.0
  0
LINE
  5
154
330
17
100
AcDbEntity
  8
BUILDING
100
AcDbLine
 10
1097343.027601117
 20
121330.8138611374
 30
0.0
 11
1097453.027601117
 21
121330.8138611374
 31
0.0
  0
LINE
  5
155
330
17
100
AcDbEntity
  8
BUILDING
100
AcDbLine
 10
1097453.027601117
 20
121330.8138611374
 30
0.0
 11
1097453.027601117
 21
121440.8138611374
 31
0.0
  0
LINE
  5
156
330
17
100
AcDbEntity
  8
BUILDING
100
AcDbLine
 10
1097453.027601117
 20
121440.8138611374
 30
0.0
 11
1097343.027601117
 21
121440.8138611374
 31
0.0
  0
LINE
  5
157
330
17
100
AcDbEntity
  8
BUILDING
100
AcDbLine
 10
1097343.027601117
 20
121440.8138611374
 30
0.0
 11
1097343.027601117
 21
121330.8138611374
 31
0.0
  0
LINE
  5
158
330
17
100
AcDbEntity
  8
BUILDING
100
AcDbLine
 10
1097343.027601117
 20
61080.8138611411
 30
0.0
 11
1097453.027601117
 21
61080.8138611411
 31
0.0
  0
LINE
  5
159
330
17
100
AcDbEntity
  8
BUILDING
100
AcDbLine
 10
1097453.027601117
 20
61080.8138611411
 30
0.0
 11
1097453.027601117
 21
61190.8138611411
 31
0.0
  0
LINE
  5
15A
330
17
100
AcDbEntity
  8
BUILDING
100
AcDbLine
 10
1097453.027601117
 20
61190.8138611411
 30
0.0
 11
1097343.027601117
 21
61190.8138611411
 31
0.0
  0
LINE
  5
15B
330
17
100
AcDbEntity
  8
BUILDING
100
AcDbLine
 10
1097343.027601117
 20
61190.8138611411
 30
0.0
 11
1097343.027601117
 21
61080.8138611411
 31
0.0
  0
LINE
  5
15C
330
17
100
AcDbEntity
  8
BUILDING
100
AcDbLine
 10
1105593.027601117
 20
121330.8138611374
 30
0.0
 11
1105703.027601117
 21
121330.8138611374
 31
0.0
  0
LINE
  5
15D
330
17
100
AcDbEntity
  8
BUILDING
100
AcDbLine
 10
1105703.027601117
 20
121330.8138611374
 30
0.0
 11
1105703.027601117
 21
121440.8138611374
 31
0.0
  0
LINE
  5
15E
330
17
100
AcDbEntity
  8
BUILDING
100
AcDbLine
 10
1105703.027601117
 20
121440.8138611374
 30
0.0
 11
1105593.027601117
 21
121440.8138611374
 31
0.0
  0
LINE
  5
15F
330
17
100
AcDbEntity
  8
BUILDING
100
AcDbLine
 10
1105593.027601117
 20
121440.8138611374
 30
0.0
 11
1105593.027601117
 21
121330.8138611374
 31
0.0
  0
LINE
  5
160
330
17
100
AcDbEntity
  8
BUILDING
100
AcDbLine
 10
1105593.027601117
 20
61080.8138611411
 30
0.0
 11
1105703.027601117
 21
61080.8138611411
 31
0.0
  0
LINE
  5
161
330
17
100
AcDbEntity
  8
BUILDING
100
AcDbLine
 10
1105703.027601117
 20
61080.8138611411
 30
0.0
 11
1105703.027601117
 21
61190.8138611411
 31
0.0
  0
LINE
  5
162
330
17
100
AcDbEntity
  8
BUILDING
100
AcDbLine
 10
1105703.027601117
 20
61190.8138611411
 30
0.0
 11
1105593.027601117
 21
61190.8138611411
 31
0.0
  0
LINE
  5
163
330
17
100
AcDbEntity
  8
BUILDING
100
AcDbLine
 10
1105593.027601117
 20
61190.8138611411
 30
0.0
 11
1105593.027601117
 21
61080.8138611411
 31
0.0
  0
LINE
  5
164
330
17
100
AcDbEntity
  8
BUILDING
100
AcDbLine
 10
1113843.027601117
 20
61080.8138611411
 30
0.0
 11
1113953.027601117
 21
61080.8138611411
 31
0.0
  0
LINE
  5
165
330
17
100
AcDbEntity
  8
BUILDING
100
AcDbLine
 10
1113953.027601117
 20
61080.8138611411
 30
0.0
 11
1113953.027601117
 21
61190.8138611411
 31
0.0
  0
LINE
  5
166
330
17
100
AcDbEntity
  8
BUILDING
100
AcDbLine
 10
1113953.027601117
 20
61190.8138611411
 30
0.0
 11
1113843.027601117
 21
61190.8138611411
 31
0.0
  0
LINE
  5
167
330
17
100
AcDbEntity
  8
BUILDING
100
AcDbLine
 10
1113843.027601117
 20
61190.8138611411
 30
0.0
 11
1113843.027601117
 21
61080.8138611411
 31
0.0
  0
LINE
  5
168
330
17
100
AcDbEntity
  8
BUILDING
100
AcDbLine
 10
1121623.027601117
 20
61080.8138611411
 30
0.0
 11
1121733.027601117
 21
61080.8138611411
 31
0.0
  0
LINE
  5
169
330
17
100
AcDbEntity
  8
BUILDING
100
AcDbLine
 10
1121733.027601117
 20
61080.8138611411
 30
0.0
 11
1121733.027601117
 21
61190.8138611411
 31
0.0
  0
LINE
  5
16A
330
17
100
AcDbEntity
  8
BUILDING
100
AcDbLine
 10
1121733.027601117
 20
61190.8138611411
 30
0.0
 11
1121623.027601117
 21
61190.8138611411
 31
0.0
  0
LINE
  5
16B
330
17
100
AcDbEntity
  8
BUILDING
100
AcDbLine
 10
1121623.027601117
 20
61190.8138611411
 30
0.0
 11
1121623.027601117
 21
61080.8138611411
 31
0.0
  0
LINE
  5
16C
330
17
100
AcDbEntity
  8
BUILDING
100
AcDbLine
 10
1072593.027601117
 20
121330.8138611374
 30
0.0
 11
1072703.027601117
 21
121330.8138611374
 31
0.0
  0
LINE
  5
16D
330
17
100
AcDbEntity
  8
BUILDING
100
AcDbLine
 10
1072703.027601117
 20
121330.8138611374
 30
0.0
 11
1072703.027601117
 21
121440.8138611374
 31
0.0
  0
LINE
  5
16E
330
17
100
AcDbEntity
  8
BUILDING
100
AcDbLine
 10
1072703.027601117
 20
121440.8138611374
 30
0.0
 11
1072593.027601117
 21
121440.8138611374
 31
0.0
  0
LINE
  5
16F
330
17
100
AcDbEntity
  8
BUILDING
100
AcDbLine
 10
1072593.027601117
 20
121440.8138611374
 30
0.0
 11
1072593.027601117
 21
121330.8138611374
 31
0.0
  0
LINE
  5
170
330
17
100
AcDbEntity
  8
BUILDING
100
AcDbLine
 10
1072593.027601117
 20
61080.8138611411
 30
0.0
 11
1072703.027601117
 21
61080.8138611411
 31
0.0
  0
LINE
  5
171
330
17
100
AcDbEntity
  8
BUILDING
100
AcDbLine
 10
1072703.027601117
 20
61080.8138611411
 30
0.0
 11
1072703.027601117
 21
61190.8138611411
 31
0.0
  0
LINE
  5
172
330
17
100
AcDbEntity
  8
BUILDING
100
AcDbLine
 10
1072703.027601117
 20
61190.8138611411
 30
0.0
 11
1072593.027601117
 21
61190.8138611411
 31
0.0
  0
LINE
  5
173
330
17
100
AcDbEntity
  8
BUILDING
100
AcDbLine
 10
1072593.027601117
 20
61190.8138611411
 30
0.0
 11
1072593.027601117
 21
61080.8138611411
 31
0.0
  0
LINE
  5
174
330
17
100
AcDbEntity
  8
BUILDING
100
AcDbLine
 10
1064343.027601119
 20
121330.8138611374
 30
0.0
 11
1064453.027601119
 21
121330.8138611374
 31
0.0
  0
LINE
  5
175
330
17
100
AcDbEntity
  8
BUILDING
100
AcDbLine
 10
1064453.027601119
 20
121330.8138611374
 30
0.0
 11
1064453.027601119
 21
121440.8138611374
 31
0.0
  0
LINE
  5
176
330
17
100
AcDbEntity
  8
BUILDING
100
AcDbLine
 10
1064453.027601119
 20
121440.8138611374
 30
0.0
 11
1064343.027601119
 21
121440.8138611374
 31
0.0
  0
LINE
  5
177
330
17
100
AcDbEntity
  8
BUILDING
100
AcDbLine
 10
1064343.027601119
 20
121440.8138611374
 30
0.0
 11
1064343.027601119
 21
121330.8138611374
 31
0.0
  0
LINE
  5
178
330
17
100
AcDbEntity
  8
BUILDING
100
AcDbLine
 10
1064343.027601119
 20
61080.8138611411
 30
0.0
 11
1064453.027601119
 21
61080.8138611411
 31
0.0
  0
LINE
  5
179
330
17
100
AcDbEntity
  8
BUILDING
100
AcDbLine
 10
1064453.027601119
 20
61080.8138611411
 30
0.0
 11
1064453.027601119
 21
61190.8138611411
 31
0.0
  0
LINE
  5
17A
330
17
100
AcDbEntity
  8
BUILDING
100
AcDbLine
 10
1064453.027601119
 20
61190.8138611411
 30
0.0
 11
1064343.027601119
 21
61190.8138611411
 31
0.0
  0
LINE
  5
17B
330
17
100
AcDbEntity
  8
BUILDING
100
AcDbLine
 10
1064343.027601119
 20
61190.8138611411
 30
0.0
 11
1064343.027601119
 21
61080.8138611411
 31
0.0
  0
LINE
  5
17C
330
17
100
AcDbEntity
  8
BUILDING
100
AcDbLine
 10
1056093.037077777
 20
121330.8141100458
 30
0.0
 11
1056203.037077777
 21
121330.8141100458
 31
0.0
  0
LINE
  5
17D
330
17
100
AcDbEntity
  8
BUILDING
100
AcDbLine
 10
1056203.037077777
 20
121330.8141100458
 30
0.0
 11
1056203.037077777
 21
121440.8141100458
 31
0.0
  0
LINE
  5
17E
330
17
100
AcDbEntity
  8
BUILDING
100
AcDbLine
 10
1056203.037077777
 20
121440.8141100458
 30
0.0
 11
1056093.037077777
 21
121440.8141100458
 31
0.0
  0
LINE
  5
17F
330
17
100
AcDbEntity
  8
BUILDING
100
AcDbLine
 10
1056093.037077777
 20
121440.8141100458
 30
0.0
 11
1056093.037077777
 21
121330.8141100458
 31
0.0
  0
LINE
  5
180
330
17
100
AcDbEntity
  8
BUILDING
100
AcDbLine
 10
1056093.027601113
 20
61080.8138611411
 30
0.0
 11
1056203.027601113
 21
61080.8138611411
 31
0.0
  0
LINE
  5
181
330
17
100
AcDbEntity
  8
BUILDING
100
AcDbLine
 10
1056203.027601113
 20
61080.8138611411
 30
0.0
 11
1056203.027601113
 21
61190.8138611411
 31
0.0
  0
LINE
  5
182
330
17
100
AcDbEntity
  8
BUILDING
100
AcDbLine
 10
1056203.027601113
 20
61190.8138611411
 30
0.0
 11
1056093.027601113
 21
61190.8138611411
 31
0.0
  0
LINE
  5
183
330
17
100
AcDbEntity
  8
BUILDING
100
AcDbLine
 10
1056093.027601113
 20
61190.8138611411
 30
0.0
 11
1056093.027601113
 21
61080.8138611411
 31
0.0
  0
LINE
  5
184
330
17
100
AcDbEntity
  8
BUILDING
100
AcDbLine
 10
1047573.024873472
 20
121330.8141100458
 30
0.0
 11
1047683.024873472
 21
121330.8141100458
 31
0.0
  0
LINE
  5
185
330
17
100
AcDbEntity
  8
BUILDING
100
AcDbLine
 10
1047683.024873472
 20
121330.8141100458
 30
0.0
 11
1047683.024873472
 21
121440.8141100458
 31
0.0
  0
LINE
  5
186
330
17
100
AcDbEntity
  8
BUILDING
100
AcDbLine
 10
1047683.024873472
 20
121440.8141100458
 30
0.0
 11
1047573.024873472
 21
121440.8141100458
 31
0.0
  0
LINE
  5
187
330
17
100
AcDbEntity
  8
BUILDING
100
AcDbLine
 10
1047573.024873472
 20
121440.8141100458
 30
0.0
 11
1047573.024873472
 21
121330.8141100458
 31
0.0
  0
LINE
  5
188
330
17
100
AcDbEntity
  8
BUILDING
100
AcDbLine
 10
1038563.021854259
 20
121330.8141100458
 30
0.0
 11
1038673.021854259
 21
121330.8141100458
 31
0.0
  0
LINE
  5
189
330
17
100
AcDbEntity
  8
BUILDING
100
AcDbLine
 10
1038673.021854259
 20
121330.8141100458
 30
0.0
 11
1038673.021854259
 21
121440.8141100458
 31
0.0
  0
LINE
  5
18A
330
17
100
AcDbEntity
  8
BUILDING
100
AcDbLine
 10
1038673.021854259
 20
121440.8141100458
 30
0.0
 11
1038563.021854259
 21
121440.8141100458
 31
0.0
  0
LINE
  5
18B
330
17
100
AcDbEntity
  8
BUILDING
100
AcDbLine
 10
1038563.021854259
 20
121440.8141100458
 30
0.0
 11
1038563.021854259
 21
121330.8141100458
 31
0.0
  0
LINE
  5
18C
330
17
100
AcDbEntity
  8
BUILDING
100
AcDbLine
 10
1038148.027601113
 20
121510.8138611373
 30
0.0
 11
1122148.027601117
 21
121510.8138611373
 31
0.0
  0
LINE
  5
18D
330
17
100
AcDbEntity
  8
BUILDING
100
AcDbLine
 10
1122148.027601117
 20
121510.8138611373
 30
0.0
 11
1122148.027601117
 21
61010.81386114104
 31
0.0
  0
LINE
  5
18E
330
17
100
AcDbEntity
  8
BUILDING
100
AcDbLine
 10
1122148.027601117
 20
61010.81386114104
 30
0.0
 11
1038148.027601113
 21
61260.81386114104
 31
0.0
  0
LINE
  5
18F
330
17
100
AcDbEntity
  8
BUILDING
100
AcDbLine
 10
1038148.027601113
 20
61260.81386114104
 30
0.0
 11
1038148.027601113
 21
121510.8138611373
 31
0.0
  0
LINE
  5
190
330
17
100
AcDbEntity
  8
BUILDING
100
AcDbLine
 10
1053148.027601113
 20
121510.8138611373
 30
0.0
 11
1068148.027601113
 21
121510.8138611373
 31
0.0
  0
LINE
  5
191
330
17
100
AcDbEntity
  8
BUILDING
100
AcDbLine
 10
1068148.027601113
 20
121510.8138611373
 30
0.0
 11
1083148.027601113
 21
121510.8138611374
 31
0.0
  0
LINE
  5
192
330
17
100
AcDbEntity
  8
BUILDING
100
AcDbLine
 10
1083148.027601113
 20
121510.8138611374
 30
0.0
 11
1098148.027601113
 21
121510.8138611374
 31
0.0
  0
LINE
  5
193
330
17
100
AcDbEntity
  8
BUILDING
100
AcDbLine
 10
1098148.027601113
 20
121510.8138611374
 30
0.0
 11
1113148.027601113
 21
121510.8138611374
 31
0.0
  0
LINE
  5
194
330
17
100
AcDbEntity
  8
BUILDING
100
AcDbLine
 10
1038148.027601113
 20
91260.81386113873
 30
0.0
 11
1122148.027601117
 21
91260.81386113873
 31
0.0
  0
LINE
  5
195
330
17
100
AcDbEntity
  8
BUILDING
100
AcDbLine
 10
1058148.027601113
 20
121510.8138611373
 30
0.0
 11
1078148.027601113
 21
121510.8138611373
 31
0.0
  0
LINE
  5
196
330
17
100
AcDbEntity
  8
BUILDING
100
AcDbLine
 10
1078148.027601113
 20
121510.8138611373
 30
0.0
 11
1098148.027601113
 21
121510.8138611373
 31
0.0
  0
LINE
  5
197
330
17
100
AcDbEntity
  8
BUILDING
100
AcDbLine
 10
1038148.027601113
 20
121510.8138611373
 30
0.0
 11
1038148.027601113
 21
106510.8138611373
 31
0.0
  0
LINE
  5
198
330
17
100
AcDbEntity
  8
BUILDING
100
AcDbLine
 10
1034847.5
 20
106510.8138611373
 30
0.0
 11
1127782.0
 21
106510.8138611373
 31
0.0
  0
LINE
  5
199
330
17
100
AcDbEntity
  8
BUILDING
100
AcDbLine
 10
1038148.027601113
 20
61720.81386114104
 30
0.0
 11
1038148.027601113
 21
76720.81386114104
 31
0.0
  0
LINE
  5
19A
330
17
100
AcDbEntity
  8
BUILDING
100
AcDbLine
 10
1034847.5
 20
76720.81386114104
 30
0.0
 11
1127782.0
 21
76720.81386114104
 31
0.0
  0
LINE
  5
19B
330
17
100
AcDbEntity
  8
BUILDING
100
AcDbLine
 10
1038148.027601113
 20
121510.8138611373
 30
0.0
 11
1053148.027601113
 21
121510.8138611373
 31
0.0
  0
LINE
  5
19C
330
17
100
AcDbEntity
  8
BUILDING
100
AcDbLine
 10
1053148.027601113
 20
126113.0
 30
0.0
 11
1053148.027601113
 21
56937.0
 31
0.0
  0
LINE
  5
19D
330
17
100
AcDbEntity
  8
BUILDING
100
AcDbLine
 10
1053148.027601113
 20
121510.8138611373
 30
0.0
 11
1068148.027601113
 21
121510.8138611373
 31
0.0
  0
LINE
  5
19E
330
17
100
AcDbEntity
  8
BUILDING
100
AcDbLine
 10
1068148.027601113
 20
126113.0
 30
0.0
 11
1068148.027601113
 21
56937.0
 31
0.0
  0
LINE
  5
19F
330
17
100
AcDbEntity
  8
BUILDING
100
AcDbLine
 10
1068148.027601113
 20
121510.8138611373
 30
0.0
 11
1083148.027601113
 21
121510.8138611374
 31
0.0
  0
LINE
  5
1A0
330
17
100
AcDbEntity
  8
BUILDING
100
AcDbLine
 10
1083148.027601113
 20
126113.0
 30
0.0
 11
1083148.027601113
 21
56937.0
 31
0.0
  0
LINE
  5
1A1
330
17
100
AcDbEntity
  8
BUILDING
100
AcDbLine
 10
1083148.027601113
 20
121510.8138611374
 30
0.0
 11
1098148.027601113
 21
121510.8138611374
 31
0.0
  0
LINE
  5
1A2
330
17
100
AcDbEntity
  8
BUILDING
100
AcDbLine
 10
1098148.027601113
 20
126113.0
 30
0.0
 11
1098148.027601113
 21
56937.0
 31
0.0
  0
LINE
  5
1A3
330
17
100
AcDbEntity
  8
BUILDING
100
AcDbLine
 10
1098148.027601113
 20
121510.8138611374
 30
0.0
 11
1113148.027601113
 21
121510.8138611374
 31
0.0
  0
LINE
  5
1A4
330
17
100
AcDbEntity
  8
BUILDING
100
AcDbLine
 10
1113148.027601113
 20
126113.0
 30
0.0
 11
1113148.027601113
 21
56937.0
 31
0.0
  0
LINE
  5
1A5
330
17
100
AcDbEntity
  8
BUILDING
100
AcDbLine
 10
1038148.027601113
 20
121510.8138611373
 30
0.0
 11
1064148.027601113
 21
121510.8138611373
 31
0.0
  0
LINE
  5
1A6
330
17
100
AcDbEntity
  8
BUILDING
100
AcDbLine
 10
1064148.027601113
 20
121510.8138611373
 30
0.0
 11
1064148.027601113
 21
121862.0
 31
0.0
  0
LINE
  5
1A7
330
17
100
AcDbEntity
  8
BUILDING
100
AcDbLine
 10
1064148.027601113
 20
121510.8138611373
 30
0.0
 11
1090148.027601113
 21
121510.8138611373
 31
0.0
  0
LINE
  5
1A8
330
17
100
AcDbEntity
  8
BUILDING
100
AcDbLine
 10
1090148.027601113
 20
121260.8138611373
 30
0.0
 11
1116148.027601113
 21
121260.8138611373
 31
0.0
  0
LINE
  5
1A9
330
17
100
AcDbEntity
  8
BUILDING
100
AcDbLine
 10
1034847.5
 20
126113.0
 30
0.0
 11
1127782.0
 21
126113.0
 31
0.0
  0
LINE
  5
1AA
330
17
100
AcDbEntity
  8
BUILDING
100
AcDbLine
 10
1127782.0
 20
126113.0
 30
0.0
 11
1127782.0
 21
56937.0
 31
0.0
  0
LINE
  5
1AB
330
17
100
AcDbEntity
  8
BUILDING
100
AcDbLine
 10
1127782.0
 20
56937.0
 30
0.0
 11
1034847.5
 21
56937.0
 31
0.0
  0
LINE
  5
1AC
330
17
100
AcDbEntity
  8
BUILDING
100
AcDbLine
 10
1034847.5
 20
56937.0
 30
0.0
 11
1034847.5
 21
126113.0
 31
0.0
  0
LINE
  5
1AD
330
17
100
AcDbEntity
  8
BUILDING
100
AcDbLine
 10
1064162.0
 20
57084.50000000001
 30
0.0
 11
1064162.0
 21
56737.6861388627
 31
0.0
  0
LINE
  5
1AE
330
17
100
AcDbEntity
  8
BUILDING
100
AcDbLine
 10
1075746.522100046
 20
61073.18637177278
 30
0.0
 11
1075746.522100046
 21
59672.0
 31
0.0
  0
LINE
  5
1AF
330
17
100
AcDbEntity
  8
BUILDING
100
AcDbLine
 10
1046776.701536959
 20
61155.32940575168
 30
0.0
 11
1046776.701536959
 21
59855.00000000001
 31
0.0
  0
LINE
  5
1B0
330
17
100
AcDbEntity
  8
BUILDING
100
AcDbLine
 10
1101910.084199571
 20
61152.67944240721
 30
0.0
 11
1104002.95748652
 21
61152.67944240721
 31
0.0
  0
LINE
  5
1B1
330
17
100
AcDbEntity
  8
BUILDING
100
AcDbLine
 10
1101910.084199571
 20
60685.5000000234
 30
0.0
 11
1104002.95748652
 21
60685.5000000234
 31
0.0
  0
LINE
  5
1B2
330
17
100
AcDbEntity
  8
BUILDING
100
AcDbLine
 10
1102388.004327286
 20
60903.01513904578
 30
0.0
 11
1102335.727140507
 21
61043.78743152332
 31
0.0
  0
LINE
  5
1B3
330
17
100
AcDbEntity
  8
BUILDING
100
AcDbLine
 10
1102335.727140507
 20
61043.78743152332
 30
0.0
 11
1102187.676164954
 21
61068.90020529332
 31
0.0
  0
LINE
  5
1B4
330
17
100
AcDbEntity
  8
BUILDING
100
AcDbLine
 10
1102187.676164954
 20
61068.90020529332
 30
0.0
 11
1102091.902376158
 21
60953.24068655365
 31
0.0
  0
LINE
  5
1B5
330
17
100
AcDbEntity
  8
BUILDING
100
AcDbLine
 10
1102091.902376158
 20
60953.24068655365
 30
0.0
 11
1102144.179564347
 21
60812.46839320066
 31
0.0
  0
LINE
  5
1B6
330
17
100
AcDbEntity
  8
BUILDING
100
AcDbLine
 10
1102144.179564347
 20
60812.46839320066
 30
0.0
 11
1102292.230539922
 21
60787.35561946232
 31
0.0
  0
LINE
  5
1B7
330
17
100
AcDbEntity
  8
BUILDING
100
AcDbLine
 10
1102292.230539922
 20
60787.35561946232
 30
0.0
 11
1102388.004327286
 21
60903.01513904578
 31
0.0
  0
LINE
  5
1B8
330
17
100
AcDbEntity
  8
BUILDING
100
AcDbLine
 10
1102120.336360087
 20
60876.67350091983
 30
0.0
 11
1102364.161124435
 21
60967.22024588857
 31
0.0
  0
LINE
  5
1B9
330
17
100
AcDbEntity
  8
BUILDING
100
AcDbLine
 10
1102108.883753323
 20
60907.51314204803
 30
0.0
 11
1102352.708519103
 21
60998.05988617439
 31
0.0
  0
LINE
  5
1BA
330
17
100
AcDbEntity
  8
BUILDING
100
AcDbLine
 10
1102743.314344406
 20
60896.05379418994
 30
0.0
 11
1102691.037157627
 21
61036.82608666748
 31
0.0
  0
LINE
  5
1BB
330
17
100
AcDbEntity
  8
BUILDING
100
AcDbLine
 10
1102691.037157627
 20
61036.82608666748
 30
0.0
 11
1102542.986182074
 21
61061.93886043748
 31
0.0
  0
LINE
  5
1BC
330
17
100
AcDbEntity
  8
BUILDING
100
AcDbLine
 10
1102542.986182074
 20
61061.93886043748
 30
0.0
 11
1102447.212393278
 21
60946.27934169781
 31
0.0
  0
LINE
  5
1BD
330
17
100
AcDbEntity
  8
BUILDING
100
AcDbLine
 10
1102447.212393278
 20
60946.27934169781
 30
0.0
 11
1102499.489581467
 21
60805.50704834482
 31
0.0
  0
LINE
  5
1BE
330
17
100
AcDbEntity
  8
BUILDING
100
AcDbLine
 10
1102499.489581467
 20
60805.50704834482
 30
0.0
 11
1102647.540557041
 21
60780.39427460649
 31
0.0
  0
LINE
  5
1BF
330
17
100
AcDbEntity
  8
BUILDING
100
AcDbLine
 10
1102647.540557041
 20
60780.39427460649
 30
0.0
 11
1102743.314344406
 21
60896.05379418994
 31
0.0
  0
LINE
  5
1C0
330
17
100
AcDbEntity
  8
BUILDING
100
AcDbLine
 10
1102475.646377207
 20
60869.71215606399
 30
0.0
 11
1102719.471141555
 21
60960.25890103274
 31
0.0
  0
LINE
  5
1C1
330
17
100
AcDbEntity
  8
BUILDING
100
AcDbLine
 10
1102464.193770443
 20
60900.55179719219
 30
0.0
 11
1102708.018536223
 21
60991.09854131856
 31
0.0
  0
LINE
  5
1C2
330
17
100
AcDbEntity
  8
BUILDING
100
AcDbLine
 10
1103746.542421382
 20
60889.09244933457
 30
0.0
 11
1103694.265234604
 21
61029.86474181211
 31
0.0
  0
LINE
  5
1C3
330
17
100
AcDbEntity
  8
BUILDING
100
AcDbLine
 10
1103694.265234604
 20
61029.86474181211
 30
0.0
 11
1103546.21425905
 21
61054.97751558211
 31
0.0
  0
LINE
  5
1C4
330
17
100
AcDbEntity
  8
BUILDING
100
AcDbLine
 10
1103546.21425905
 20
61054.97751558211
 30
0.0
 11
1103450.440470255
 21
60939.31799684244
 31
0.0
  0
LINE
  5
1C5
330
17
100
AcDbEntity
  8
BUILDING
100
AcDbLine
 10
1103450.440470255
 20
60939.31799684244
 30
0.0
 11
1103502.717658443
 21
60798.54570348945
 31
0.0
  0
LINE
  5
1C6
330
17
100
AcDbEntity
  8
BUILDING
100
AcDbLine
 10
1103502.717658443
 20
60798.54570348945
 30
0.0
 11
1103650.768634018
 21
60773.43292975111
 31
0.0
  0
LINE
  5
1C7
330
17
100
AcDbEntity
  8
BUILDING
100
AcDbLine
 10
1103650.768634018
 20
60773.43292975111
 30
0.0
 11
1103746.542421382
 21
60889.09244933457
 31
0.0
  0
LINE
  5
1C8
330
17
100
AcDbEntity
  8
BUILDING
100
AcDbLine
 10
1103478.874454184
 20
60862.75081120862
 30
0.0
 11
1103722.699218532
 21
60953.29755617736
 31
0.0
  0
LINE
  5
1C9
330
17
100
AcDbEntity
  8
BUILDING
100
AcDbLine
 10
1103467.421847419
 20
60893.59045233682
 30
0.0
 11
1103711.246613199
 21
60984.13719646318
 31
0.0
  0
LINE
  5
1CA
330
17
100
AcDbEntity
  8
BUILDING
100
AcDbLine
 10
1103388.653753157
 20
60894.71364968421
 30
0.0
 11
1103336.376566378
 21
61035.48594216176
 31
0.0
  0
LINE
  5
1CB
330
17
100
AcDbEntity
  8
BUILDING
100
AcDbLine
 10
1103336.376566378
 20
61035.48594216176
 30
0.0
 11
1103188.325590825
 21
61060.59871593176
 31
0.0
  0
LINE
  5
1CC
330
17
100
AcDbEntity
  8
BUILDING
100
AcDbLine
 10
1103188.325590825
 20
61060.59871593176
 30
0.0
 11
1103092.551802029
 21
60944.93919719208
 31
0.0
  0
LINE
  5
1CD
330
17
100
AcDbEntity
  8
BUILDING
100
AcDbLine
 10
1103092.551802029
 20
60944.93919719208
 30
0.0
 11
1103144.828990218
 21
60804.1669038391
 31
0.0
  0
LINE
  5
1CE
330
17
100
AcDbEntity
  8
BUILDING
100
AcDbLine
 10
1103144.828990218
 20
60804.1669038391
 30
0.0
 11
1103292.879965793
 21
60779.05413010076
 31
0.0
  0
LINE
  5
1CF
330
17
100
AcDbEntity
  8
BUILDING
100
AcDbLine
 10
1103292.879965793
 20
60779.05413010076
 30
0.0
 11
1103388.653753157
 21
60894.71364968421
 31
0.0
  0
LINE
  5
1D0
330
17
100
AcDbEntity
  8
BUILDING
100
AcDbLine
 10
1103120.985785959
 20
60868.37201155827
 30
0.0
 11
1103364.810550307
 21
60958.91875652701
 31
0.0
  0
LINE
  5
1D1
330
17
100
AcDbEntity
  8
BUILDING
100
AcDbLine
 10
1103109.533179194
 20
60899.21165268647
 30
0.0
 11
1103353.357944974
 21
60989.75839681283
 31
0.0
  0
LINE
  5
1D2
330
17
100
AcDbEntity
  8
BUILDING
100
AcDbLine
 10
1104002.957486577
 20
60685.50000000053
 30
0.0
 11
1104002.957486577
 21
59608.00000000001
 31
0.0
  0
LINE
  5
1D3
330
17
100
AcDbEntity
  8
BUILDING
100
AcDbLine
 10
1052333.5
 20
53688.0
 30
0.0
 11
1054027.0
 21
53688.0
 31
0.0
  0
LINE
  5
1D4
330
17
100
AcDbEntity
  8
BUILDING
100
AcDbLine
 10
1054027.0
 20
53688.0
 30
0.0
 11
1054027.0
 21
52605.0
 31
0.0
  0
LINE
  5
1D5
330
17
100
AcDbEntity
  8
BUILDING
100
AcDbLine
 10
1054027.0
 20
52605.0
 30
0.0
 11
1052333.5
 21
52605.0
 31
0.0
  0
LINE
  5
1D6
330
17
100
AcDbEntity
  8
BUILDING
100
AcDbLine
 10
1052333.5
 20
52605.0
 30
0.0
 11
1052333.5
 21
53688.0
 31
0.0
  0
LINE
  5
1D7
330
17
100
AcDbEntity
  8
BUILDING
100
AcDbLine
 10
1051594.154572839
 20
122084.0066389647
 30
0.0
 11
1051041.750742935
 21
120396.8480849205
 31
0.0
  0
LINE
  5
1D8
330
17
100
AcDbEntity
  8
BUILDING
100
AcDbLine
 10
1054016.914256446
 20
122084.0066389647
 30
0.0
 11
1053464.510426543
 21
120396.8480849205
 31
0.0
  0
LINE
  5
1D9
330
17
100
AcDbEntity
  8
BUILDING
100
AcDbLine
 10
1051041.750742935
 20
120396.8480849205
 30
0.0
 11
1053464.510426543
 21
120396.8480849205
 31
0.0
  0
LINE
  5
1DA
330
17
100
AcDbEntity
  8
BUILDING
100
AcDbLine
 10
1051041.750742935
 20
120396.8480849205
 30
0.0
 11
1051353.172092703
 21
118591.0260459086
 31
0.0
  0
LINE
  5
1DB
330
17
100
AcDbEntity
  8
BUILDING
100
AcDbLine
 10
1051353.172092703
 20
118591.0260459086
 30
0.0
 11
1054514.20424025
 21
118591.0260459086
 31
0.0
  0
LINE
  5
1DC
330
17
100
AcDbEntity
  8
BUILDING
100
AcDbLine
 10
1054514.20424025
 20
118591.0260459086
 30
0.0
 11
1054514.20424025
 21
121481.1286489863
 31
0.0
  0
LINE
  5
1DD
330
17
100
AcDbEntity
  8
BUILDING
100
AcDbLine
 10
1054514.20424025
 20
121481.1286489863
 30
0.0
 11
1053819.52195456
 21
121481.1286489863
 31
0.0
  0
LINE
  5
1DE
330
17
100
AcDbEntity
  8
BUILDING
100
AcDbLine
 10
1051610.51257358
 20
123194.6955410339
 30
0.0
 11
1051610.51257358
 21
122800.9970338301
 31
0.0
  0
LINE
  5
1DF
330
17
100
AcDbEntity
  8
BUILDING
100
AcDbLine
 10
1051610.51257358
 20
122800.9970338301
 30
0.0
 11
1052152.152176198
 21
122691.5011572901
 31
0.0
  0
LINE
  5
1E0
330
17
100
AcDbEntity
  8
BUILDING
100
AcDbLine
 10
1052152.152176198
 20
122691.5011572901
 30
0.0
 11
1052932.979438013
 21
122691.5011572901
 31
0.0
  0
LINE
  5
1E1
330
17
100
AcDbEntity
  8
BUILDING
100
AcDbLine
 10
1052932.979438013
 20
122691.5011572901
 30
0.0
 11
1053476.565633992
 21
122800.9970338301
 31
0.0
  0
LINE
  5
1E2
330
17
100
AcDbEntity
  8
BUILDING
100
AcDbLine
 10
1051610.51257358
 20
123194.6955410339
 30
0.0
 11
1052152.152176198
 21
123085.1996644939
 31
0.0
  0
LINE
  5
1E3
330
17
100
AcDbEntity
  8
BUILDING
100
AcDbLine
 10
1052152.152176198
 20
123085.1996644939
 30
0.0
 11
1052932.979438013
 21
123085.1996644939
 31
0.0
  0
LINE
  5
1E4
330
17
100
AcDbEntity
  8
BUILDING
100
AcDbLine
 10
1052932.979438013
 20
123085.1996644939
 30
0.0
 11
1053476.565633992
 21
123194.6955410339
 31
0.0
  0
LINE
  5
1E5
330
17
100
AcDbEntity
  8
BUILDING
100
AcDbLine
 10
1052152.152176198
 20
123085.1996644939
 30
0.0
 11
1052152.152176198
 21
122691.5011572901
 31
0.0
  0
LINE
  5
1E6
330
17
100
AcDbEntity
  8
BUILDING
100
AcDbLine
 10
1052932.979438013
 20
123085.1996644939
 30
0.0
 11
1052932.979438013
 21
122691.5011572901
 31
0.0
  0
LINE
  5
1E7
330
17
100
AcDbEntity
  8
BUILDING
100
AcDbLine
 10
1053476.565633992
 20
123194.6955410339
 30
0.0
 11
1053476.565633992
 21
122800.9970338301
 31
0.0
  0
LINE
  5
1E8
330
17
100
AcDbEntity
  8
BUILDING
100
AcDbLine
 10
1051984.7317781
 20
122725.3462512452
 30
0.0
 11
1051984.7317781
 21
121260.8138611373
 31
0.0
  0
LINE
  5
1E9
330
17
100
AcDbEntity
  8
BUILDING
100
AcDbLine
 10
1053148.027601113
 20
122734.8188266702
 30
0.0
 11
1053148.027601113
 21
121260.8138611373
 31
0.0
  0
LINE
  5
1EA
330
17
100
AcDbEntity
  8
BUILDING
100
AcDbLine
 10
1051984.7317781
 20
122084.0066389647
 30
0.0
 11
1051594.154572839
 21
122084.0066389647
 31
0.0
  0
LINE
  5
1EB
330
17
100
AcDbEntity
  8
BUILDING
100
AcDbLine
 10
1051594.154572839
 20
122084.0066389647
 30
0.0
 11
1051041.750742935
 21
120396.8480849205
 31
0.0
  0
LINE
  5
1EC
330
17
100
AcDbEntity
  8
BUILDING
100
AcDbLine
 10
1051041.750742935
 20
120396.8480849205
 30
0.0
 11
1053464.510426543
 21
120396.8480849205
 31
0.0
  0
LINE
  5
1ED
330
17
100
AcDbEntity
  8
BUILDING
100
AcDbLine
 10
1053464.510426543
 20
120396.8480849205
 30
0.0
 11
1054016.914256446
 21
122084.0066389647
 31
0.0
  0
LINE
  5
1EE
330
17
100
AcDbEntity
  8
BUILDING
100
AcDbLine
 10
1054016.914256446
 20
122084.0066389647
 30
0.0
 11
1053148.027601113
 21
122084.0066389647
 31
0.0
  0
LINE
  5
1EF
330
17
100
AcDbEntity
  8
BUILDING
100
AcDbLine
 10
1051984.7317781
 20
120396.8480849205
 30
0.0
 11
1051984.7317781
 21
119453.4452601175
 31
0.0
  0
LINE
  5
1F0
330
17
100
AcDbEntity
  8
BUILDING
100
AcDbLine
 10
1053148.027601113
 20
120396.8480849205
 30
0.0
 11
1053148.027601113
 21
119453.4452601175
 31
0.0
  0
LINE
  5
1F1
330
17
100
AcDbEntity
  8
BUILDING
100
AcDbLine
 10
1051605.402296532
 20
123497.1425245229
 30
0.0
 11
1051052.998466629
 21
121809.9839704787
 31
0.0
  0
LINE
  5
1F2
330
17
100
AcDbEntity
  8
BUILDING
100
AcDbLine
 10
1051052.998466629
 20
121809.9839704787
 30
0.0
 11
1049407.315893705
 21
121809.9839704787
 31
0.0
  0
LINE
  5
1F3
330
17
100
AcDbEntity
  8
BUILDING
100
AcDbLine
 10
1049025.736867399
 20
123705.3653544013
 30
0.0
 11
1049025.736867399
 21
123311.6668471975
 31
0.0
  0
LINE
  5
1F4
330
17
100
AcDbEntity
  8
BUILDING
100
AcDbLine
 10
1049025.736867399
 20
123311.6668471975
 30
0.0
 11
1049567.376470017
 21
123202.1709706575
 31
0.0
  0
LINE
  5
1F5
330
17
100
AcDbEntity
  8
BUILDING
100
AcDbLine
 10
1049567.376470017
 20
123202.1709706575
 30
0.0
 11
1050348.203731832
 21
123202.1709706575
 31
0.0
  0
LINE
  5
1F6
330
17
100
AcDbEntity
  8
BUILDING
100
AcDbLine
 10
1050348.203731832
 20
123202.1709706575
 30
0.0
 11
1050891.78992781
 21
123311.6668471975
 31
0.0
  0
LINE
  5
1F7
330
17
100
AcDbEntity
  8
BUILDING
100
AcDbLine
 10
1049025.736867399
 20
123705.3653544013
 30
0.0
 11
1049567.376470017
 21
123595.8694778613
 31
0.0
  0
LINE
  5
1F8
330
17
100
AcDbEntity
  8
BUILDING
100
AcDbLine
 10
1049567.376470017
 20
123595.8694778613
 30
0.0
 11
1050348.203731832
 21
123595.8694778613
 31
0.0
  0
LINE
  5
1F9
330
17
100
AcDbEntity
  8
BUILDING
100
AcDbLine
 10
1050348.203731832
 20
123595.8694778613
 30
0.0
 11
1050891.78992781
 21
123705.3653544013
 31
0.0
  0
LINE
  5
1FA
330
17
100
AcDbEntity
  8
BUILDING
100
AcDbLine
 10
1049567.376470017
 20
123595.8694778613
 30
0.0
 11
1049567.376470017
 21
123202.1709706575
 31
0.0
  0
LINE
  5
1FB
330
17
100
AcDbEntity
  8
BUILDING
100
AcDbLine
 10
1050348.203731832
 20
123595.8694778613
 30
0.0
 11
1050348.203731832
 21
123202.1709706575
 31
0.0
  0
LINE
  5
1FC
330
17
100
AcDbEntity
  8
BUILDING
100
AcDbLine
 10
1050891.78992781
 20
123705.3653544013
 30
0.0
 11
1050891.78992781
 21
123311.6668471975
 31
0.0
  0
LINE
  5
1FD
330
17
100
AcDbEntity
  8
BUILDING
100
AcDbLine
 10
1049407.315893705
 20
121809.9839704787
 30
0.0
 11
1051052.998466629
 21
121809.9839704787
 31
0.0
  0
LINE
  5
1FE
330
17
100
AcDbEntity
  8
BUILDING
100
AcDbLine
 10
1051052.998466629
 20
121809.9839704787
 30
0.0
 11
1051605.402296532
 21
123497.1425245229
 31
0.0
  0
LINE
  5
1FF
330
17
100
AcDbEntity
  8
BUILDING
100
AcDbLine
 10
1051605.402296532
 20
123497.1425245229
 30
0.0
 11
1050891.78992781
 21
123497.1425245229
 31
0.0
  0
LINE
  5
200
330
17
100
AcDbEntity
  8
BUILDING
100
AcDbLine
 10
1049407.315893705
 20
121809.9839704787
 30
0.0
 11
1049567.376470017
 21
123096.1403336374
 31
0.0
  0
LINE
  5
201
330
17
100
AcDbEntity
  8
BUILDING
100
AcDbLine
 10
1047985.603618831
 20
121809.9839704787
 30
0.0
 11
1047985.603618831
 21
121563.0964354036
 31
0.0
  0
LINE
  5
202
330
17
100
AcDbEntity
  8
BUILDING
100
AcDbLine
 10
1047985.603618831
 20
121712.9723536212
 30
0.0
 11
1051472.671763912
 21
121712.9723536212
 31
0.0
  0
LINE
  5
203
330
17
100
AcDbEntity
  8
BUILDING
100
AcDbLine
 10
1051605.402296532
 20
123497.1425245229
 30
0.0
 11
1051610.51257358
 21
123194.6955410339
 31
0.0
  0
LINE
  5
204
330
17
100
AcDbEntity
  8
BUILDING
100
AcDbLine
 10
1049025.736867399
 20
121479.0197007937
 30
0.0
 11
1049025.736867399
 21
121085.3211935899
 31
0.0
  0
LINE
  5
205
330
17
100
AcDbEntity
  8
BUILDING
100
AcDbLine
 10
1049025.736867399
 20
121085.3211935899
 30
0.0
 11
1049567.376470017
 21
120975.8253170499
 31
0.0
  0
LINE
  5
206
330
17
100
AcDbEntity
  8
BUILDING
100
AcDbLine
 10
1049567.376470017
 20
120975.8253170499
 30
0.0
 11
1050348.203731832
 21
120975.8253170499
 31
0.0
  0
LINE
  5
207
330
17
100
AcDbEntity
  8
BUILDING
100
AcDbLine
 10
1050348.203731832
 20
120975.8253170499
 30
0.0
 11
1050891.78992781
 21
121085.3211935899
 31
0.0
  0
LINE
  5
208
330
17
100
AcDbEntity
  8
BUILDING
100
AcDbLine
 10
1049025.736867399
 20
121479.0197007937
 30
0.0
 11
1049567.376470017
 21
121369.5238242537
 31
0.0
  0
LINE
  5
209
330
17
100
AcDbEntity
  8
BUILDING
100
AcDbLine
 10
1049567.376470017
 20
121369.5238242537
 30
0.0
 11
1050348.203731832
 21
121369.5238242537
 31
0.0
  0
LINE
  5
20A
330
17
100
AcDbEntity
  8
BUILDING
100
AcDbLine
 10
1050348.203731832
 20
121369.5238242537
 30
0.0
 11
1050891.78992781
 21
121479.0197007937
 31
0.0
  0
LINE
  5
20B
330
17
100
AcDbEntity
  8
BUILDING
100
AcDbLine
 10
1049567.376470017
 20
121369.5238242537
 30
0.0
 11
1049567.376470017
 21
120975.8253170499
 31
0.0
  0
LINE
  5
20C
330
17
100
AcDbEntity
  8
BUILDING
100
AcDbLine
 10
1050348.203731832
 20
121369.5238242537
 30
0.0
 11
1050348.203731832
 21
120975.8253170499
 31
0.0
  0
LINE
  5
20D
330
17
100
AcDbEntity
  8
BUILDING
100
AcDbLine
 10
1050891.78992781
 20
121479.0197007937
 30
0.0
 11
1050891.78992781
 21
121085.3211935899
 31
0.0
  0
LINE
  5
20E
330
17
100
AcDbEntity
  8
BUILDING
100
AcDbLine
 10
1047985.603618831
 20
121563.0964354036
 30
0.0
 11
1051423.599890356
 21
121563.0964354036
 31
0.0
  0
LINE
  5
20F
330
17
100
AcDbEntity
  8
BUILDING
100
AcDbLine
 10
1047985.603618831
 20
121563.0964354036
 30
0.0
 11
1049206.403429227
 21
121563.0964354036
 31
0.0
  0
LINE
  5
210
330
17
100
AcDbEntity
  8
BUILDING
100
AcDbLine
 10
1049025.736867399
 20
121479.0197007937
 30
0.0
 11
1049206.403429227
 21
121563.0964354036
 31
0.0
  0
LINE
  5
211
330
17
100
AcDbEntity
  8
BUILDING
100
AcDbLine
 10
1050891.78992781
 20
121479.0197007937
 30
0.0
 11
1050891.78992781
 21
121563.0964354036
 31
0.0
  0
LINE
  5
212
330
17
100
AcDbEntity
  8
BUILDING
100
AcDbLine
 10
1049567.376470017
 20
120975.8253170499
 30
0.0
 11
1049567.376470017
 21
120801.9067344373
 31
0.0
  0
LINE
  5
213
330
17
100
AcDbEntity
  8
BUILDING
100
AcDbLine
 10
1050348.203731832
 20
120975.8253170499
 30
0.0
 11
1050348.203731832
 21
120801.9067344373
 31
0.0
  0
LINE
  5
214
330
17
100
AcDbEntity
  8
BUILDING
100
AcDbLine
 10
1047985.603618831
 20
121809.9839704787
 30
0.0
 11
1048655.546161332
 21
123497.1425245229
 31
0.0
  0
LINE
  5
215
330
17
100
AcDbEntity
  8
BUILDING
100
AcDbLine
 10
1050891.78992781
 20
121085.3211935899
 30
0.0
 11
1051323.365624914
 21
121302.0086491652
 31
0.0
  0
LINE
  5
216
330
17
100
AcDbEntity
  8
BUILDING
100
AcDbLine
 10
1051323.365624914
 20
121302.0086491652
 30
0.0
 11
1051338.115397678
 21
121302.0086491652
 31
0.0
  0
LINE
  5
217
330
17
100
AcDbEntity
  8
BUILDING
100
AcDbLine
 10
1052916.527601113
 20
123328.0
 30
0.0
 11
1052916.527601113
 21
129787.0
 31
0.0
  0
LWPOLYLINE
  5
218
330
17
100
AcDbEntity
  8
BOUNDARY
100
AcDbPolyline
 90
4
 70
1
 10
1034847.5
 20
126113.0
 10
1127782.0
 20
126113.0
 10
1127782.0
 20
56937.0
 10
1034847.5
 20
56937.0
  0
LINE
  5
219
330
17
100
AcDbEntity
  8
LPS_MESH
100
AcDbLine
 10
1034847.5
 20
56937.0
 30
0.0
 11
1034847.5
 21
126113.0
 31
0.0
  0
LINE
  5
21A
330
17
100
AcDbEntity
  8
LPS_MESH
100
AcDbLine
 10
1054847.5
 20
56937.0
 30
0.0
 11
1054847.5
 21
126113.0
 31
0.0
  0
LINE
  5
21B
330
17
100
AcDbEntity
  8
LPS_MESH
100
AcDbLine
 10
1074847.5
 20
56937.0
 30
0.0
 11
1074847.5
 21
126113.0
 31
0.0
  0
LINE
  5
21C
330
17
100
AcDbEntity
  8
LPS_MESH
100
AcDbLine
 10
1094847.5
 20
56937.0
 30
0.0
 11
1094847.5
 21
126113.0
 31
0.0
  0
LINE
  5
21D
330
17
100
AcDbEntity
  8
LPS_MESH
100
AcDbLine
 10
1114847.5
 20
56937.0
 30
0.0
 11
1114847.5
 21
126113.0
 31
0.0
  0
LINE
  5
21E
330
17
100
AcDbEntity
  8
LPS_MESH
100
AcDbLine
 10
1034847.5
 20
56937.0
 30
0.0
 11
1127782.0
 21
56937.0
 31
0.0
  0
LINE
  5
21F
330
17
100
AcDbEntity
  8
LPS_MESH
100
AcDbLine
 10
1034847.5
 20
76937.0
 30
0.0
 11
1127782.0
 21
76937.0
 31
0.0
  0
LINE
  5
220
330
17
100
AcDbEntity
  8
LPS_MESH
100
AcDbLine
 10
1034847.5
 20
96937.0
 30
0.0
 11
1127782.0
 21
96937.0
 31
0.0
  0
LINE
  5
221
330
17
100
AcDbEntity
  8
LPS_MESH
100
AcDbLine
 10
1034847.5
 20
116937.0
 30
0.0
 11
1127782.0
 21
116937.0
 31
0.0
  0
CIRCLE
  5
222
330
17
100
AcDbEntity
  8
DOWN_CONDUCTORS
100
AcDbCircle
 10
1034847.5
 20
126113.0
 30
0.0
 40
200.0
  0
CIRCLE
  5
223
330
17
100
AcDbEntity
  8
DOWN_CONDUCTORS
100
AcDbCircle
 10
1055111.3125
 20
126113.0
 30
0.0
 40
200.0
  0
CIRCLE
  5
224
330
17
100
AcDbEntity
  8
DOWN_CONDUCTORS
100
AcDbCircle
 10
1075375.125
 20
126113.0
 30
0.0
 40
200.0
  0
CIRCLE
  5
225
330
17
100
AcDbEntity
  8
DOWN_CONDUCTORS
100
AcDbCircle
 10
1095638.9375
 20
126113.0
 30
0.0
 40
200.0
  0
CIRCLE
  5
226
330
17
100
AcDbEntity
  8
DOWN_CONDUCTORS
100
AcDbCircle
 10
1115902.75
 20
126113.0
 30
0.0
 40
200.0
  0
CIRCLE
  5
227
330
17
100
AcDbEntity
  8
DOWN_CONDUCTORS
100
AcDbCircle
 10
1127782.0
 20
117728.4375
 30
0.0
 40
200.0
  0
CIRCLE
  5
228
330
17
100
AcDbEntity
  8
DOWN_CONDUCTORS
100
AcDbCircle
 10
1127782.0
 20
97464.625
 30
0.0
 40
200.0
  0
CIRCLE
  5
229
330
17
100
AcDbEntity
  8
DOWN_CONDUCTORS
100
AcDbCircle
 10
1127782.0
 20
77200.8125
 30
0.0
 40
200.0
  0
CIRCLE
  5
22A
330
17
100
AcDbEntity
  8
DOWN_CONDUCTORS
100
AcDbCircle
 10
1127782.0
 20
56937.0
 30
0.0
 40
200.0
  0
CIRCLE
  5
22B
330
17
100
AcDbEntity
  8
DOWN_CONDUCTORS
100
AcDbCircle
 10
1107518.1875
 20
56937.0
 30
0.0
 40
200.0
  0
CIRCLE
  5
22C
330
17
100
AcDbEntity
  8
DOWN_CONDUCTORS
100
AcDbCircle
 10
1087254.375
 20
56937.0
 30
0.0
 40
200.0
  0
CIRCLE
  5
22D
330
17
100
AcDbEntity
  8
DOWN_CONDUCTORS
100
AcDbCircle
 10
1066990.5625
 20
56937.0
 30
0.0
 40
200.0
  0
CIRCLE
  5
22E
330
17
100
AcDbEntity
  8
DOWN_CONDUCTORS
100
AcDbCircle
 10
1046726.75
 20
56937.0
 30
0.0
 40
200.0
  0
CIRCLE
  5
22F
330
17
100
AcDbEntity
  8
DOWN_CONDUCTORS
100
AcDbCircle
 10
1034847.5
 20
65321.5625
 30
0.0
 40
200.0
  0
CIRCLE
  5
230
330
17
100
AcDbEntity
  8
DOWN_CONDUCTORS
100
AcDbCircle
 10
1034847.5
 20
85585.375
 30
0.0
 40
200.0
  0
CIRCLE
  5
231
330
17
100
AcDbEntity
  8
DOWN_CONDUCTORS
100
AcDbCircle
 10
1034847.5
 20
105849.1875
 30
0.0
 40
200.0
  0
CIRCLE
  5
232
330
17
100
AcDbEntity
  8
DOWN_CONDUCTORS
100
AcDbCircle
 10
1034847.5
 20
126113.0
 30
0.0
 40
200.0
  0
LINE
  5
233
330
17
100
AcDbEntity
  8
EARTHING_RING
100
AcDbLine
 10
1034047.5
 20
126113.0
 30
0.0
 11
1034051.3522186623
 21
126191.41371226365
 31
0.0
  0
LINE
  5
234
330
17
100
AcDbEntity
  8
EARTHING_RING
100
AcDbLine
 10
1034051.3522186623
 20
126191.41371226365
 30
0.0
 11
1034062.8717756774
 21
126269.0722576129
 31
0.0
  0
LINE
  5
235
330
17
100
AcDbEntity
  8
EARTHING_RING
100
AcDbLine
 10
1034062.8717756774
 20
126269.0722576129
 30
0.0
 11
1034081.9477314142
 21
126345.22774180357
 31
0.0
  0
LINE
  5
236
330
17
100
AcDbEntity
  8
EARTHING_RING
100
AcDbLine
 10
1034081.9477314142
 20
126345.22774180357
 30
0.0
 11
1034108.3963739909
 21
126419.14674589207
 31
0.0
  0
LINE
  5
237
330
17
100
AcDbEntity
  8
EARTHING_RING
100
AcDbLine
 10
1034108.3963739909
 20
126419.14674589207
 30
0.0
 11
1034141.9629885213
 21
126490.1173894608
 31
0.0
  0
LINE
  5
238
330
17
100
AcDbEntity
  8
EARTHING_RING
100
AcDbLine
 10
1034141.9629885213
 20
126490.1173894608
 30
0.0
 11
1034182.3243101579
 21
126557.45618641569
 31
0.0
  0
LINE
  5
239
330
17
100
AcDbEntity
  8
EARTHING_RING
100
AcDbLine
 10
1034182.3243101579
 20
126557.45618641569
 30
0.0
 11
1034229.0916373098
 21
126620.51462733092
 31
0.0
  0
LINE
  5
23A
330
17
100
AcDbEntity
  8
EARTHING_RING
100
AcDbLine
 10
1034229.0916373098
 20
126620.51462733092
 30
0.0
 11
1034281.8145750507
 21
126678.68542494923
 31
0.0
  0
LINE
  5
23B
330
17
100
AcDbEntity
  8
EARTHING_RING
100
AcDbLine
 10
1034281.8145750507
 20
126678.68542494923
 30
0.0
 11
1034339.9853726691
 21
126731.40836269018
 31
0.0
  0
LINE
  5
23C
330
17
100
AcDbEntity
  8
EARTHING_RING
100
AcDbLine
 10
1034339.9853726691
 20
126731.40836269018
 30
0.0
 11
1034403.0438135844
 21
126778.17568984204
 31
0.0
  0
LINE
  5
23D
330
17
100
AcDbEntity
  8
EARTHING_RING
100
AcDbLine
 10
1034403.0438135844
 20
126778.17568984204
 30
0.0
 11
1034470.3826105392
 21
126818.53701147868
 31
0.0
  0
LINE
  5
23E
330
17
100
AcDbEntity
  8
EARTHING_RING
100
AcDbLine
 10
1034470.3826105392
 20
126818.53701147868
 30
0.0
 11
1034541.3532541079
 21
126852.10362600903
 31
0.0
  0
LINE
  5
23F
330
17
100
AcDbEntity
  8
EARTHING_RING
100
AcDbLine
 10
1034541.3532541079
 20
126852.10362600903
 30
0.0
 11
1034615.2722581964
 21
126878.55226858577
 31
0.0
  0
LINE
  5
240
330
17
100
AcDbEntity
  8
EARTHING_RING
100
AcDbLine
 10
1034615.2722581964
 20
126878.55226858577
 30
0.0
 11
1034691.427742387
 21
126897.62822432259
 31
0.0
  0
LINE
  5
241
330
17
100
AcDbEntity
  8
EARTHING_RING
100
AcDbLine
 10
1034691.427742387
 20
126897.62822432259
 30
0.0
 11
1034769.0862877363
 21
126909.14778133776
 31
0.0
  0
LINE
  5
242
330
17
100
AcDbEntity
  8
EARTHING_RING
100
AcDbLine
 10
1034769.0862877363
 20
126909.14778133776
 30
0.0
 11
1034847.5
 21
126913.0
 31
0.0
  0
LINE
  5
243
330
17
100
AcDbEntity
  8
EARTHING_RING
100
AcDbLine
 10
1034847.5
 20
126913.0
 30
0.0
 11
1127782.0
 21
126913.0
 31
0.0
  0
LINE
  5
244
330
17
100
AcDbEntity
  8
EARTHING_RING
100
AcDbLine
 10
1127782.0
 20
126913.0
 30
0.0
 11
1127860.4137122636
 21
126909.14778133776
 31
0.0
  0
LINE
  5
245
330
17
100
AcDbEntity
  8
EARTHING_RING
100
AcDbLine
 10
1127860.4137122636
 20
126909.14778133776
 30
0.0
 11
1127938.0722576128
 21
126897.62822432259
 31
0.0
  0
LINE
  5
246
330
17
100
AcDbEntity
  8
EARTHING_RING
100
AcDbLine
 10
1127938.0722576128
 20
126897.62822432259
 30
0.0
 11
1128014.2277418035
 21
126878.55226858577
 31
0.0
  0
LINE
  5
247
330
17
100
AcDbEntity
  8
EARTHING_RING
100
AcDbLine
 10
1128014.2277418035
 20
126878.55226858577
 30
0.0
 11
1128088.146745892
 21
126852.10362600903
 31
0.0
  0
LINE
  5
248
330
17
100
AcDbEntity
  8
EARTHING_RING
100
AcDbLine
 10
1128088.146745892
 20
126852.10362600903
 30
0.0
 11
1128159.1173894608
 21
126818.53701147868
 31
0.0
  0
LINE
  5
249
330
17
100
AcDbEntity
  8
EARTHING_RING
100
AcDbLine
 10
1128159.1173894608
 20
126818.53701147868
 30
0.0
 11
1128226.4561864156
 21
126778.17568984204
 31
0.0
  0
LINE
  5
24A
330
17
100
AcDbEntity
  8
EARTHING_RING
100
AcDbLine
 10
1128226.4561864156
 20
126778.17568984204
 30
0.0
 11
1128289.514627331
 21
126731.40836269018
 31
0.0
  0
LINE
  5
24B
330
17
100
AcDbEntity
  8
EARTHING_RING
100
AcDbLine
 10
1128289.514627331
 20
126731.40836269018
 30
0.0
 11
1128347.6854249493
 21
126678.68542494923
 31
0.0
  0
LINE
  5
24C
330
17
100
AcDbEntity
  8
EARTHING_RING
100
AcDbLine
 10
1128347.6854249493
 20
126678.68542494923
 30
0.0
 11
1128400.4083626901
 21
126620.51462733092
 31
0.0
  0
LINE
  5
24D
330
17
100
AcDbEntity
  8
EARTHING_RING
100
AcDbLine
 10
1128400.4083626901
 20
126620.51462733092
 30
0.0
 11
1128447.175689842
 21
126557.45618641569
 31
0.0
  0
LINE
  5
24E
330
17
100
AcDbEntity
  8
EARTHING_RING
100
AcDbLine
 10
1128447.175689842
 20
126557.45618641569
 30
0.0
 11
1128487.5370114788
 21
126490.1173894608
 31
0.0
  0
LINE
  5
24F
330
17
100
AcDbEntity
  8
EARTHING_RING
100
AcDbLine
 10
1128487.5370114788
 20
126490.1173894608
 30
0.0
 11
1128521.103626009
 21
126419.14674589207
 31
0.0
  0
LINE
  5
250
330
17
100
AcDbEntity
  8
EARTHING_RING
100
AcDbLine
 10
1128521.103626009
 20
126419.14674589207
 30
0.0
 11
1128547.5522685857
 21
126345.22774180357
 31
0.0
  0
LINE
  5
251
330
17
100
AcDbEntity
  8
EARTHING_RING
100
AcDbLine
 10
1128547.5522685857
 20
126345.22774180357
 30
0.0
 11
1128566.6282243226
 21
126269.0722576129
 31
0.0
  0
LINE
  5
252
330
17
100
AcDbEntity
  8
EARTHING_RING
100
AcDbLine
 10
1128566.6282243226
 20
126269.0722576129
 30
0.0
 11
1128578.1477813378
 21
126191.41371226365
 31
0.0
  0
LINE
  5
253
330
17
100
AcDbEntity
  8
EARTHING_RING
100
AcDbLine
 10
1128578.1477813378
 20
126191.41371226365
 30
0.0
 11
1128582.0
 21
126113.0
 31
0.0
  0
LINE
  5
254
330
17
100
AcDbEntity
  8
EARTHING_RING
100
AcDbLine
 10
1128582.0
 20
126113.0
 30
0.0
 11
1128582.0
 21
56937.0
 31
0.0
  0
LINE
  5
255
330
17
100
AcDbEntity
  8
EARTHING_RING
100
AcDbLine
 10
1128582.0
 20
56937.0
 30
0.0
 11
1128578.1477813378
 21
56858.586287736354
 31
0.0
  0
LINE
  5
256
330
17
100
AcDbEntity
  8
EARTHING_RING
100
AcDbLine
 10
1128578.1477813378
 20
56858.586287736354
 30
0.0
 11
1128566.6282243226
 21
56780.927742387095
 31
0.0
  0
LINE
  5
257
330
17
100
AcDbEntity
  8
EARTHING_RING
100
AcDbLine
 10
1128566.6282243226
 20
56780.927742387095
 30
0.0
 11
1128547.5522685857
 21
56704.77225819643
 31
0.0
  0
LINE
  5
258
330
17
100
AcDbEntity
  8
EARTHING_RING
100
AcDbLine
 10
1128547.5522685857
 20
56704.77225819643
 30
0.0
 11
1128521.103626009
 21
56630.853254107926
 31
0.0
  0
LINE
  5
259
330
17
100
AcDbEntity
  8
EARTHING_RING
100
AcDbLine
 10
1128521.103626009
 20
56630.853254107926
 30
0.0
 11
1128487.5370114788
 21
56559.8826105392
 31
0.0
  0
LINE
  5
25A
330
17
100
AcDbEntity
  8
EARTHING_RING
100
AcDbLine
 10
1128487.5370114788
 20
56559.8826105392
 30
0.0
 11
1128447.175689842
 21
56492.54381358432
 31
0.0
  0
LINE
  5
25B
330
17
100
AcDbEntity
  8
EARTHING_RING
100
AcDbLine
 10
1128447.175689842
 20
56492.54381358432
 30
0.0
 11
1128400.4083626901
 21
56429.485372669085
 31
0.0
  0
LINE
  5
25C
330
17
100
AcDbEntity
  8
EARTHING_RING
100
AcDbLine
 10
1128400.4083626901
 20
56429.485372669085
 30
0.0
 11
1128347.6854249493
 21
56371.31457505076
 31
0.0
  0
LINE
  5
25D
330
17
100
AcDbEntity
  8
EARTHING_RING
100
AcDbLine
 10
1128347.6854249493
 20
56371.31457505076
 30
0.0
 11
1128289.514627331
 21
56318.59163730981
 31
0.0
  0
LINE
  5
25E
330
17
100
AcDbEntity
  8
EARTHING_RING
100
AcDbLine
 10
1128289.514627331
 20
56318.59163730981
 30
0.0
 11
1128226.4561864156
 21
56271.824310157965
 31
0.0
  0
LINE
  5
25F
330
17
100
AcDbEntity
  8
EARTHING_RING
100
AcDbLine
 10
1128226.4561864156
 20
56271.824310157965
 30
0.0
 11
1128159.1173894608
 21
56231.462988521314
 31
0.0
  0
LINE
  5
260
330
17
100
AcDbEntity
  8
EARTHING_RING
100
AcDbLine
 10
1128159.1173894608
 20
56231.462988521314
 30
0.0
 11
1128088.146745892
 21
56197.896373990974
 31
0.0
  0
LINE
  5
261
330
17
100
AcDbEntity
  8
EARTHING_RING
100
AcDbLine
 10
1128088.146745892
 20
56197.896373990974
 30
0.0
 11
1128014.2277418035
 21
56171.447731414235
 31
0.0
  0
LINE
  5
262
330
17
100
AcDbEntity
  8
EARTHING_RING
100
AcDbLine
 10
1128014.2277418035
 20
56171.447731414235
 30
0.0
 11
1127938.0722576128
 21
56152.37177567741
 31
0.0
  0
LINE
  5
263
330
17
100
AcDbEntity
  8
EARTHING_RING
100
AcDbLine
 10
1127938.0722576128
 20
56152.37177567741
 30
0.0
 11
1127860.4137122636
 21
56140.85221866224
 31
0.0
  0
LINE
  5
264
330
17
100
AcDbEntity
  8
EARTHING_RING
100
AcDbLine
 10
1127860.4137122636
 20
56140.85221866224
 30
0.0
 11
1127782.0
 21
56137.0
 31
0.0
  0
LINE
  5
265
330
17
100
AcDbEntity
  8
EARTHING_RING
100
AcDbLine
 10
1127782.0
 20
56137.0
 30
0.0
 11
1034847.5
 21
56137.0
 31
0.0
  0
LINE
  5
266
330
17
100
AcDbEntity
  8
EARTHING_RING
100
AcDbLine
 10
1034847.5
 20
56137.0
 30
0.0
 11
1034769.0862877363
 21
56140.85221866224
 31
0.0
  0
LINE
  5
267
330
17
100
AcDbEntity
  8
EARTHING_RING
100
AcDbLine
 10
1034769.0862877363
 20
56140.85221866224
 30
0.0
 11
1034691.427742387
 21
56152.37177567741
 31
0.0
  0
LINE
  5
268
330
17
100
AcDbEntity
  8
EARTHING_RING
100
AcDbLine
 10
1034691.427742387
 20
56152.37177567741
 30
0.0
 11
1034615.2722581964
 21
56171.447731414235
 31
0.0
  0
LINE
  5
269
330
17
100
AcDbEntity
  8
EARTHING_RING
100
AcDbLine
 10
1034615.2722581964
 20
56171.447731414235
 30
0.0
 11
1034541.3532541079
 21
56197.896373990974
 31
0.0
  0
LINE
  5
26A
330
17
100
AcDbEntity
  8
EARTHING_RING
100
AcDbLine
 10
1034541.3532541079
 20
56197.896373990974
 30
0.0
 11
1034470.3826105392
 21
56231.462988521314
 31
0.0
  0
LINE
  5
26B
330
17
100
AcDbEntity
  8
EARTHING_RING
100
AcDbLine
 10
1034470.3826105392
 20
56231.462988521314
 30
0.0
 11
1034403.0438135844
 21
56271.824310157965
 31
0.0
  0
LINE
  5
26C
330
17
100
AcDbEntity
  8
EARTHING_RING
100
AcDbLine
 10
1034403.0438135844
 20
56271.824310157965
 30
0.0
 11
1034339.9853726691
 21
56318.59163730981
 31
0.0
  0
LINE
  5
26D
330
17
100
AcDbEntity
  8
EARTHING_RING
100
AcDbLine
 10
1034339.9853726691
 20
56318.59163730981
 30
0.0
 11
1034281.8145750507
 21
56371.31457505076
 31
0.0
  0
LINE
  5
26E
330
17
100
AcDbEntity
  8
EARTHING_RING
100
AcDbLine
 10
1034281.8145750507
 20
56371.31457505076
 30
0.0
 11
1034229.0916373098
 21
56429.485372669085
 31
0.0
  0
LINE
  5
26F
330
17
100
AcDbEntity
  8
EARTHING_RING
100
AcDbLine
 10
1034229.0916373098
 20
56429.485372669085
 30
0.0
 11
1034182.3243101579
 21
56492.54381358432
 31
0.0
  0
LINE
  5
270
330
17
100
AcDbEntity
  8
EARTHING_RING
100
AcDbLine
 10
1034182.3243101579
 20
56492.54381358432
 30
0.0
 11
1034141.9629885213
 21
56559.8826105392
 31
0.0
  0
LINE
  5
271
330
17
100
AcDbEntity
  8
EARTHING_RING
100
AcDbLine
 10
1034141.9629885213
 20
56559.8826105392
 30
0.0
 11
1034108.3963739909
 21
56630.853254107926
 31
0.0
  0
LINE
  5
272
330
17
100
AcDbEntity
  8
EARTHING_RING
100
AcDbLine
 10
1034108.3963739909
 20
56630.853254107926
 30
0.0
 11
1034081.9477314142
 21
56704.77225819643
 31
0.0
  0
LINE
  5
273
330
17
100
AcDbEntity
  8
EARTHING_RING
100
AcDbLine
 10
1034081.9477314142
 20
56704.77225819643
 30
0.0
 11
1034062.8717756774
 21
56780.927742387095
 31
0.0
  0
LINE
  5
274
330
17
100
AcDbEntity
  8
EARTHING_RING
100
AcDbLine
 10
1034062.8717756774
 20
56780.927742387095
 30
0.0
 11
1034051.3522186623
 21
56858.586287736354
 31
0.0
  0
LINE
  5
275
330
17
100
AcDbEntity
  8
EARTHING_RING
100
AcDbLine
 10
1034051.3522186623
 20
56858.586287736354
 30
0.0
 11
1034047.5
 21
56937.0
 31
0.0
  0
LINE
  5
276
330
17
100
AcDbEntity
  8
EARTHING_RING
100
AcDbLine
 10
1034047.5
 20
56937.0
 30
0.0
 11
1034047.5
 21
126113.0
 31
0.0
  0
CIRCLE
  5
277
330
17
100
AcDbEntity
  8
AIR_TERMINALS
100
AcDbCircle
 10
1034847.5
 20
126113.0
 30
0.0
 40
150.0
  0
CIRCLE
  5
278
330
17
100
AcDbEntity
  8
AIR_TERMINALS
100
AcDbCircle
 10
1065825.6666666667
 20
126113.0
 30
0.0
 40
150.0
  0
CIRCLE
  5
279
330
17
100
AcDbEntity
  8
AIR_TERMINALS
100
AcDbCircle
 10
1096803.8333333333
 20
126113.0
 30
0.0
 40
150.0
  0
CIRCLE
  5
27A
330
17
100
AcDbEntity
  8
AIR_TERMINALS
100
AcDbCircle
 10
1127782.0
 20
126113.0
 30
0.0
 40
150.0
  0
CIRCLE
  5
27B
330
17
100
AcDbEntity
  8
AIR_TERMINALS
100
AcDbCircle
 10
1127782.0
 20
126113.0
 30
0.0
 40
150.0
  0
CIRCLE
  5
27C
330
17
100
AcDbEntity
  8
AIR_TERMINALS
100
AcDbCircle
 10
1127782.0
 20
91525.0
 30
0.0
 40
150.0
  0
CIRCLE
  5
27D
330
17
100
AcDbEntity
  8
AIR_TERMINALS
100
AcDbCircle
 10
1127782.0
 20
56937.0
 30
0.0
 40
150.0
  0
CIRCLE
  5
27E
330
17
100
AcDbEntity
  8
AIR_TERMINALS
100
AcDbCircle
 10
1127782.0
 20
56937.0
 30
0.0
 40
150.0
  0
CIRCLE
  5
27F
330
17
100
AcDbEntity
  8
AIR_TERMINALS
100
AcDbCircle
 10
1096803.8333333333
 20
56937.0
 30
0.0
 40
150.0
  0
CIRCLE
  5
280
330
17
100
AcDbEntity
  8
AIR_TERMINALS
100
AcDbCircle
 10
1065825.6666666667
 20
56937.0
 30
0.0
 40
150.0
  0
CIRCLE
  5
281
330
17
100
AcDbEntity
  8
AIR_TERMINALS
100
AcDbCircle
 10
1034847.5
 20
56937.0
 30
0.0
 40
150.0
  0
CIRCLE
  5
282
330
17
100
AcDbEntity
  8
AIR_TERMINALS
100
AcDbCircle
 10
1034847.5
 20
56937.0
 30
0.0
 40
150.0
  0
CIRCLE
  5
283
330
17
100
AcDbEntity
  8
AIR_TERMINALS
100
AcDbCircle
 10
1034847.5
 20
91525.0
 30
0.0
 40
150.0
  0
CIRCLE
  5
284
330
17
100
AcDbEntity
  8
AIR_TERMINALS
100
AcDbCircle
 10
1034847.5
 20
126113.0
 30
0.0
 40
150.0
  0
CIRCLE
  5
285
330
17
100
AcDbEntity
  8
EARTH_PITS
100
AcDbCircle
 10
1034047.5
 20
56937.0
 30
0.0
 40
300.0
  0
CIRCLE
  5
286
330
17
100
AcDbEntity
  8
EARTH_PITS
100
AcDbCircle
 10
1034047.5
 20
79995.66666666666
 30
0.0
 40
300.0
  0
CIRCLE
  5
287
330
17
100
AcDbEntity
  8
EARTH_PITS
100
AcDbCircle
 10
1034047.5
 20
103054.33333333333
 30
0.0
 40
300.0
  0
CIRCLE
  5
288
330
17
100
AcDbEntity
  8
EARTH_PITS
100
AcDbCircle
 10
1034047.5
 20
126113.0
 30
0.0
 40
300.0
  0
CIRCLE
  5
289
330
17
100
AcDbEntity
  8
EARTH_PITS
100
AcDbCircle
 10
1034051.3522186623
 20
56858.586287736354
 30
0.0
 40
300.0
  0
CIRCLE
  5
28A
330
17
100
AcDbEntity
  8
EARTH_PITS
100
AcDbCircle
 10
1034051.3522186623
 20
126191.41371226365
 30
0.0
 40
300.0
  0
CIRCLE
  5
28B
330
17
100
AcDbEntity
  8
EARTH_PITS
100
AcDbCircle
 10
1034062.8717756774
 20
56780.927742387095
 30
0.0
 40
300.0
  0
CIRCLE
  5
28C
330
17
100
AcDbEntity
  8
EARTH_PITS
100
AcDbCircle
 10
1034062.8717756774
 20
126269.0722576129
 30
0.0
 40
300.0
  0
CIRCLE
  5
28D
330
17
100
AcDbEntity
  8
EARTH_PITS
100
AcDbCircle
 10
1034081.9477314142
 20
56704.77225819643
 30
0.0
 40
300.0
  0
CIRCLE
  5
28E
330
17
100
AcDbEntity
  8
EARTH_PITS
100
AcDbCircle
 10
1034081.9477314142
 20
126345.22774180357
 30
0.0
 40
300.0
  0
CIRCLE
  5
28F
330
17
100
AcDbEntity
  8
EARTH_PITS
100
AcDbCircle
 10
1034108.3963739909
 20
56630.853254107926
 30
0.0
 40
300.0
  0
CIRCLE
  5
290
330
17
100
AcDbEntity
  8
EARTH_PITS
100
AcDbCircle
 10
1034108.3963739909
 20
126419.14674589207
 30
0.0
 40
300.0
  0
CIRCLE
  5
291
330
17
100
AcDbEntity
  8
EARTH_PITS
100
AcDbCircle
 10
1034141.9629885213
 20
56559.8826105392
 30
0.0
 40
300.0
  0
CIRCLE
  5
292
330
17
100
AcDbEntity
  8
EARTH_PITS
100
AcDbCircle
 10
1034141.9629885213
 20
126490.1173894608
 30
0.0
 40
300.0
  0
CIRCLE
  5
293
330
17
100
AcDbEntity
  8
EARTH_PITS
100
AcDbCircle
 10
1034182.3243101579
 20
56492.54381358432
 30
0.0
 40
300.0
  0
CIRCLE
  5
294
330
17
100
AcDbEntity
  8
EARTH_PITS
100
AcDbCircle
 10
1034182.3243101579
 20
126557.45618641569
 30
0.0
 40
300.0
  0
CIRCLE
  5
295
330
17
100
AcDbEntity
  8
EARTH_PITS
100
AcDbCircle
 10
1034229.0916373098
 20
56429.485372669085
 30
0.0
 40
300.0
  0
CIRCLE
  5
296
330
17
100
AcDbEntity
  8
EARTH_PITS
100
AcDbCircle
 10
1034229.0916373098
 20
126620.51462733092
 30
0.0
 40
300.0
  0
CIRCLE
  5
297
330
17
100
AcDbEntity
  8
EARTH_PITS
100
AcDbCircle
 10
1034281.8145750507
 20
56371.31457505076
 30
0.0
 40
300.0
  0
CIRCLE
  5
298
330
17
100
AcDbEntity
  8
EARTH_PITS
100
AcDbCircle
 10
1034281.8145750507
 20
126678.68542494923
 30
0.0
 40
300.0
  0
CIRCLE
  5
299
330
17
100
AcDbEntity
  8
EARTH_PITS
100
AcDbCircle
 10
1034339.9853726691
 20
56318.59163730981
 30
0.0
 40
300.0
  0
CIRCLE
  5
29A
330
17
100
AcDbEntity
  8
EARTH_PITS
100
AcDbCircle
 10
1034339.9853726691
 20
126731.40836269018
 30
0.0
 40
300.0
  0
CIRCLE
  5
29B
330
17
100
AcDbEntity
  8
EARTH_PITS
100
AcDbCircle
 10
1034403.0438135844
 20
56271.824310157965
 30
0.0
 40
300.0
  0
CIRCLE
  5
29C
330
17
100
AcDbEntity
  8
EARTH_PITS
100
AcDbCircle
 10
1034403.0438135844
 20
126778.17568984204
 30
0.0
 40
300.0
  0
CIRCLE
  5
29D
330
17
100
AcDbEntity
  8
EARTH_PITS
100
AcDbCircle
 10
1034470.3826105392
 20
56231.462988521314
 30
0.0
 40
300.0
  0
CIRCLE
  5
29E
330
17
100
AcDbEntity
  8
EARTH_PITS
100
AcDbCircle
 10
1034470.3826105392
 20
126818.53701147868
 30
0.0
 40
300.0
  0
CIRCLE
  5
29F
330
17
100
AcDbEntity
  8
EARTH_PITS
100
AcDbCircle
 10
1034541.3532541079
 20
56197.896373990974
 30
0.0
 40
300.0
  0
CIRCLE
  5
2A0
330
17
100
AcDbEntity
  8
EARTH_PITS
100
AcDbCircle
 10
1034541.3532541079
 20
126852.10362600903
 30
0.0
 40
300.0
  0
CIRCLE
  5
2A1
330
17
100
AcDbEntity
  8
EARTH_PITS
100
AcDbCircle
 10
1034615.2722581964
 20
56171.447731414235
 30
0.0
 40
300.0
  0
CIRCLE
  5
2A2
330
17
100
AcDbEntity
  8
EARTH_PITS
100
AcDbCircle
 10
1034615.2722581964
 20
126878.55226858577
 30
0.0
 40
300.0
  0
CIRCLE
  5
2A3
330
17
100
AcDbEntity
  8
EARTH_PITS
100
AcDbCircle
 10
1034691.427742387
 20
56152.37177567741
 30
0.0
 40
300.0
  0
CIRCLE
  5
2A4
330
17
100
AcDbEntity
  8
EARTH_PITS
100
AcDbCircle
 10
1034691.427742387
 20
126897.62822432259
 30
0.0
 40
300.0
  0
CIRCLE
  5
2A5
330
17
100
AcDbEntity
  8
EARTH_PITS
100
AcDbCircle
 10
1034769.0862877363
 20
56140.85221866224
 30
0.0
 40
300.0
  0
CIRCLE
  5
2A6
330
17
100
AcDbEntity
  8
EARTH_PITS
100
AcDbCircle
 10
1034769.0862877363
 20
126909.14778133776
 30
0.0
 40
300.0
  0
CIRCLE
  5
2A7
330
17
100
AcDbEntity
  8
EARTH_PITS
100
AcDbCircle
 10
1034847.5
 20
56137.0
 30
0.0
 40
300.0
  0
CIRCLE
  5
2A8
330
17
100
AcDbEntity
  8
EARTH_PITS
100
AcDbCircle
 10
1034847.5
 20
126913.0
 30
0.0
 40
300.0
  0
CIRCLE
  5
2A9
330
17
100
AcDbEntity
  8
EARTH_PITS
100
AcDbCircle
 10
1058081.125
 20
56137.0
 30
0.0
 40
300.0
  0
CIRCLE
  5
2AA
330
17
100
AcDbEntity
  8
EARTH_PITS
100
AcDbCircle
 10
1058081.125
 20
126913.0
 30
0.0
 40
300.0
  0
CIRCLE
  5
2AB
330
17
100
AcDbEntity
  8
EARTH_PITS
100
AcDbCircle
 10
1081314.75
 20
56137.0
 30
0.0
 40
300.0
  0
CIRCLE
  5
2AC
330
17
100
AcDbEntity
  8
EARTH_PITS
100
AcDbCircle
 10
1081314.75
 20
126913.0
 30
0.0
 40
300.0
  0
CIRCLE
  5
2AD
330
17
100
AcDbEntity
  8
EARTH_PITS
100
AcDbCircle
 10
1104548.375
 20
56137.0
 30
0.0
 40
300.0
  0
CIRCLE
  5
2AE
330
17
100
AcDbEntity
  8
EARTH_PITS
100
AcDbCircle
 10
1104548.375
 20
126913.0
 30
0.0
 40
300.0
  0
CIRCLE
  5
2AF
330
17
100
AcDbEntity
  8
EARTH_PITS
100
AcDbCircle
 10
1127782.0
 20
56137.0
 30
0.0
 40
300.0
  0
CIRCLE
  5
2B0
330
17
100
AcDbEntity
  8
EARTH_PITS
100
AcDbCircle
 10
1127782.0
 20
126913.0
 30
0.0
 40
300.0
  0
CIRCLE
  5
2B1
330
17
100
AcDbEntity
  8
EARTH_PITS
100
AcDbCircle
 10
1127860.4137122636
 20
56140.85221866224
 30
0.0
 40
300.0
  0
CIRCLE
  5
2B2
330
17
100
AcDbEntity
  8
EARTH_PITS
100
AcDbCircle
 10
1127860.4137122636
 20
126909.14778133776
 30
0.0
 40
300.0
  0
CIRCLE
  5
2B3
330
17
100
AcDbEntity
  8
EARTH_PITS
100
AcDbCircle
 10
1127938.0722576128
 20
56152.37177567741
 30
0.0
 40
300.0
  0
CIRCLE
  5
2B4
330
17
100
AcDbEntity
  8
EARTH_PITS
100
AcDbCircle
 10
1127938.0722576128
 20
126897.62822432259
 30
0.0
 40
300.0
  0
CIRCLE
  5
2B5
330
17
100
AcDbEntity
  8
EARTH_PITS
100
AcDbCircle
 10
1128014.2277418035
 20
56171.447731414235
 30
0.0
 40
300.0
  0
CIRCLE
  5
2B6
330
17
100
AcDbEntity
  8
EARTH_PITS
100
AcDbCircle
 10
1128014.2277418035
 20
126878.55226858577
 30
0.0
 40
300.0
  0
CIRCLE
  5
2B7
330
17
100
AcDbEntity
  8
EARTH_PITS
100
AcDbCircle
 10
1128088.146745892
 20
56197.896373990974
 30
0.0
 40
300.0
  0
CIRCLE
  5
2B8
330
17
100
AcDbEntity
  8
EARTH_PITS
100
AcDbCircle
 10
1128088.146745892
 20
126852.10362600903
 30
0.0
 40
300.0
  0
CIRCLE
  5
2B9
330
17
100
AcDbEntity
  8
EARTH_PITS
100
AcDbCircle
 10
1128159.1173894608
 20
56231.462988521314
 30
0.0
 40
300.0
  0
CIRCLE
  5
2BA
330
17
100
AcDbEntity
  8
EARTH_PITS
100
AcDbCircle
 10
1128159.1173894608
 20
126818.53701147868
 30
0.0
 40
300.0
  0
CIRCLE
  5
2BB
330
17
100
AcDbEntity
  8
EARTH_PITS
100
AcDbCircle
 10
1128226.4561864156
 20
56271.824310157965
 30
0.0
 40
300.0
  0
CIRCLE
  5
2BC
330
17
100
AcDbEntity
  8
EARTH_PITS
100
AcDbCircle
 10
1128226.4561864156
 20
126778.17568984204
 30
0.0
 40
300.0
  0
CIRCLE
  5
2BD
330
17
100
AcDbEntity
  8
EARTH_PITS
100
AcDbCircle
 10
1128289.514627331
 20
56318.59163730981
 30
0.0
 40
300.0
  0
CIRCLE
  5
2BE
330
17
100
AcDbEntity
  8
EARTH_PITS
100
AcDbCircle
 10
1128289.514627331
 20
126731.40836269018
 30
0.0
 40
300.0
  0
CIRCLE
  5
2BF
330
17
100
AcDbEntity
  8
EARTH_PITS
100
AcDbCircle
 10
1128347.6854249493
 20
56371.31457505076
 30
0.0
 40
300.0
  0
CIRCLE
  5
2C0
330
17
100
AcDbEntity
  8
EARTH_PITS
100
AcDbCircle
 10
1128347.6854249493
 20
126678.68542494923
 30
0.0
 40
300.0
  0
CIRCLE
  5
2C1
330
17
100
AcDbEntity
  8
EARTH_PITS
100
AcDbCircle
 10
1128400.4083626901
 20
56429.485372669085
 30
0.0
 40
300.0
  0
CIRCLE
  5
2C2
330
17
100
AcDbEntity
  8
EARTH_PITS
100
AcDbCircle
 10
1128400.4083626901
 20
126620.51462733092
 30
0.0
 40
300.0
  0
CIRCLE
  5
2C3
330
17
100
AcDbEntity
  8
EARTH_PITS
100
AcDbCircle
 10
1128447.175689842
 20
56492.54381358432
 30
0.0
 40
300.0
  0
CIRCLE
  5
2C4
330
17
100
AcDbEntity
  8
EARTH_PITS
100
AcDbCircle
 10
1128447.175689842
 20
126557.45618641569
 30
0.0
 40
300.0
  0
CIRCLE
  5
2C5
330
17
100
AcDbEntity
  8
EARTH_PITS
100
AcDbCircle
 10
1128487.5370114788
 20
56559.8826105392
 30
0.0
 40
300.0
  0
CIRCLE
  5
2C6
330
17
100
AcDbEntity
  8
EARTH_PITS
100
AcDbCircle
 10
1128487.5370114788
 20
126490.1173894608
 30
0.0
 40
300.0
  0
CIRCLE
  5
2C7
330
17
100
AcDbEntity
  8
EARTH_PITS
100
AcDbCircle
 10
1128521.103626009
 20
56630.853254107926
 30
0.0
 40
300.0
  0
CIRCLE
  5
2C8
330
17
100
AcDbEntity
  8
EARTH_PITS
100
AcDbCircle
 10
1128521.103626009
 20
126419.14674589207
 30
0.0
 40
300.0
  0
CIRCLE
  5
2C9
330
17
100
AcDbEntity
  8
EARTH_PITS
100
AcDbCircle
 10
1128547.5522685857
 20
56704.77225819643
 30
0.0
 40
300.0
  0
CIRCLE
  5
2CA
330
17
100
AcDbEntity
  8
EARTH_PITS
100
AcDbCircle
 10
1128547.5522685857
 20
126345.22774180357
 30
0.0
 40
300.0
  0
CIRCLE
  5
2CB
330
17
100
AcDbEntity
  8
EARTH_PITS
100
AcDbCircle
 10
1128566.6282243226
 20
56780.927742387095
 30
0.0
 40
300.0
  0
CIRCLE
  5
2CC
330
17
100
AcDbEntity
  8
EARTH_PITS
100
AcDbCircle
 10
1128566.6282243226
 20
126269.0722576129
 30
0.0
 40
300.0
  0
CIRCLE
  5
2CD
330
17
100
AcDbEntity
  8
EARTH_PITS
100
AcDbCircle
 10
1128578.1477813378
 20
56858.586287736354
 30
0.0
 40
300.0
  0
CIRCLE
  5
2CE
330
17
100
AcDbEntity
  8
EARTH_PITS
100
AcDbCircle
 10
1128578.1477813378
 20
126191.41371226365
 30
0.0
 40
300.0
  0
CIRCLE
  5
2CF
330
17
100
AcDbEntity
  8
EARTH_PITS
100
AcDbCircle
 10
1128582.0
 20
56937.0
 30
0.0
 40
300.0
  0
CIRCLE
  5
2D0
330
17
100
AcDbEntity
  8
EARTH_PITS
100
AcDbCircle
 10
1128582.0
 20
79995.66666666667
 30
0.0
 40
300.0
  0
CIRCLE
  5
2D1
330
17
100
AcDbEntity
  8
EARTH_PITS
100
AcDbCircle
 10
1128582.0
 20
103054.33333333334
 30
0.0
 40
300.0
  0
CIRCLE
  5
2D2
330
17
100
AcDbEntity
  8
EARTH_PITS
100
AcDbCircle
 10
1128582.0
 20
126113.0
 30
0.0
 40
300.0
  0
ENDSEC
  0
SECTION
  2
OBJECTS
  0
DICTIONARY
  5
A
330
0
100
AcDbDictionary
281
1
  3
ACAD_COLOR
350
B
  3
ACAD_GROUP
350
C
  3
ACAD_LAYOUT
350
D
  3
ACAD_MATERIAL
350
E
  3
ACAD_MLEADERSTYLE
350
F
  3
ACAD_MLINESTYLE
350
10
  3
ACAD_PLOTSETTINGS
350
11
  3
ACAD_PLOTSTYLENAME
350
12
  3
ACAD_SCALELIST
350
14
  3
ACAD_TABLESTYLE
350
15
  3
ACAD_VISUALSTYLE
350
16
  3
EZDXF_META
350
2D
  0
DICTIONARY
  5
B
330
A
100
AcDbDictionary
281
1
  0
DICTIONARY
  5
C
330
A
100
AcDbDictionary
281
1
  0
DICTIONARY
  5
D
330
A
100
AcDbDictionary
281
1
  3
Model
350
1A
  3
Layout1
350
1E
  0
DICTIONARY
  5
E
330
A
100
AcDbDictionary
281
1
  3
ByBlock
350
1F
  3
ByLayer
350
20
  3
Global
350
21
  0
DICTIONARY
  5
F
330
A
100
AcDbDictionary
281
1
  3
Standard
350
2C
  0
DICTIONARY
  5
10
330
A
100
AcDbDictionary
281
1
  3
Standard
350
22
  0
DICTIONARY
  5
11
330
A
100
AcDbDictionary
281
1
  0
ACDBDICTIONARYWDFLT
  5
12
330
A
100
AcDbDictionary
281
1
  3
Normal
350
13
100
AcDbDictionaryWithDefault
340
13
  0
ACDBPLACEHOLDER
  5
13
330
12
  0
DICTIONARY
  5
14
330
A
100
AcDbDictionary
281
1
  0
DICTIONARY
  5
15
330
A
100
AcDbDictionary
281
1
  0
DICTIONARY
  5
16
330
A
100
AcDbDictionary
281
1
  0
LAYOUT
  5
1A
330
D
100
AcDbPlotSettings
  1

  4
A3
  6

 40
7.5
 41
20.0
 42
7.5
 43
20.0
 44
420.0
 45
297.0
 46
0.0
 47
0.0
 48
0.0
 49
0.0
140
0.0
141
0.0
142
1.0
143
1.0
 70
1024
 72
1
 73
0
 74
5
  7

 75
16
 76
0
 77
2
 78
300
147
1.0
148
0.0
149
0.0
100
AcDbLayout
  1
Model
 70
1
 71
0
 10
0.0
 20
0.0
 11
420.0
 21
297.0
 12
0.0
 22
0.0
 32
0.0
 14
1e+20
 24
1e+20
 34
1e+20
 15
-1e+20
 25
-1e+20
 35
-1e+20
146
0.0
 13
0.0
 23
0.0
 33
0.0
 16
1.0
 26
0.0
 36
0.0
 17
0.0
 27
1.0
 37
0.0
 76
1
330
17
  0
LAYOUT
  5
1E
330
D
100
AcDbPlotSettings
  1

  4
A3
  6

 40
7.5
 41
20.0
 42
7.5
 43
20.0
 44
420.0
 45
297.0
 46
0.0
 47
0.0
 48
0.0
 49
0.0
140
0.0
141
0.0
142
1.0
143
1.0
 70
0
 72
1
 73
0
 74
5
  7

 75
16
 76
0
 77
2
 78
300
147
1.0
148
0.0
149
0.0
100
AcDbLayout
  1
Layout1
 70
1
 71
1
 10
0.0
 20
0.0
 11
420.0
 21
297.0
 12
0.0
 22
0.0
 32
0.0
 14
1e+20
 24
1e+20
 34
1e+20
 15
-1e+20
 25
-1e+20
 35
-1e+20
146
0.0
 13
0.0
 23
0.0
 33
0.0
 16
1.0
 26
0.0
 36
0.0
 17
0.0
 27
1.0
 37
0.0
 76
1
330
1B
  0
MATERIAL
  5
1F
102
{ACAD_REACTORS
330
E
102
}
330
E
100
AcDbMaterial
  1
ByBlock
  2

 70
0
 40
1.0
 71
1
 41
1.0
 91
-1023410177
 42
1.0
 72
1
  3

 73
1
 74
1
 75
1
 44
0.5
 73
0
 45
1.0
 46
1.0
 77
1
  4

 78
1
 79
1
170
1
 48
1.0
171
1
  6

172
1
173
1
174
1
140
1.0
141
1.0
175
1
  7

176
1
177
1
178
1
143
1.0
179
1
  8

270
1
271
1
272
1
145
1.0
146
1.0
273
1
  9

274
1
275
1
276
1
 42
1.0
 72
1
  3

 73
1
 74
1
 75
1
 94
63
  0
MATERIAL
  5
20
102
{ACAD_REACTORS
330
E
102
}
330
E
100
AcDbMaterial
  1
ByLayer
  2

 70
0
 40
1.0
 71
1
 41
1.0
 91
-1023410177
 42
1.0
 72
1
  3

 73
1
 74
1
 75
1
 44
0.5
 73
0
 45
1.0
 46
1.0
 77
1
  4

 78
1
 79
1
170
1
 48
1.0
171
1
  6

172
1
173
1
174
1
140
1.0
141
1.0
175
1
  7

176
1
177
1
178
1
143
1.0
179
1
  8

270
1
271
1
272
1
145
1.0
146
1.0
273
1
  9

274
1
275
1
276
1
 42
1.0
 72
1
  3

 73
1
 74
1
 75
1
 94
63
  0
MATERIAL
  5
21
102
{ACAD_REACTORS
330
E
102
}
330
E
100
AcDbMaterial
  1
Global
  2

 70
0
 40
1.0
 71
1
 41
1.0
 91
-1023410177
 42
1.0
 72
1
  3

 73
1
 74
1
 75
1
 44
0.5
 73
0
 45
1.0
 46
1.0
 77
1
  4

 78
1
 79
1
170
1
 48
1.0
171
1
  6

172
1
173
1
174
1
140
1.0
141
1.0
175
1
  7

176
1
177
1
178
1
143
1.0
179
1
  8

270
1
271
1
272
1
145
1.0
146
1.0
273
1
  9

274
1
275
1
276
1
 42
1.0
 72
1
  3

 73
1
 74
1
 75
1
 94
63
  0
MLINESTYLE
  5
22
102
{ACAD_REACTORS
330
10
102
}
330
10
100
AcDbMlineStyle
  2
Standard
 70
0
  3

 62
256
 51
90.0
 52
90.0
 71
2
 49
0.5
 62
256
  6
BYLAYER
 49
-0.5
 62
256
  6
BYLAYER
  0
MLEADERSTYLE
  5
2C
102
{ACAD_REACTORS
330
F
102
}
330
F
100
AcDbMLeaderStyle
179
2
170
2
171
1
172
0
 90
2
 40
0.0
 41
0.0
173
1
 91
-1056964608
 92
-2
290
1
 42
2.0
291
1
 43
8.0
  3
Standard
 44
4.0
300

342
29
174
1
175
1
176
0
178
1
 93
-1056964608
 45
4.0
292
0
297
0
 46
4.0
 94
-1056964608
 47
1.0
 49
1.0
140
1.0
294
1
141
0.0
177
0
142
1.0
295
0
296
0
143
3.75
271
0
272
9
273
9
  0
DICTIONARY
  5
2D
330
A
100
AcDbDictionary
280
1
281
1
  3
CREATED_BY_EZDXF
350
2E
  3
WRITTEN_BY_EZDXF
350
2D5
  0
DICTIONARYVAR
  5
2E
330
2D
100
DictionaryVariables
280
0
  1
1.4.3 @ 2026-04-21T09:54:01.308628+00:00
  0
DICTIONARYVAR
  5
2D5
330
2D
100
DictionaryVariables
280
0
  1
1.4.3 @ 2026-04-21T09:54:01.338367+00:00
  0
ENDSEC
  0
EOF
